<svg id="svg" version="1.1" xmlns="http://www.w3.org/2000/svg" xmlns:xlink="http://www.w3.org/1999/xlink" width="400" height="186.66666666666669" viewBox="0, 0, 400,186.66666666666669"><g id="svgg"><path id="path0" d="M38.375 41.633 C 31.174 43.029,31.775 54.398,39.074 54.864 C 40.756 54.971,41.379 54.831,42.662 54.059 C 43.256 53.701,43.813 53.408,43.898 53.408 C 44.288 53.408,49.672 57.698,49.677 58.011 C 49.679 58.150,49.680 60.238,49.680 62.652 C 49.680 65.065,49.679 67.118,49.677 67.212 C 49.675 67.310,47.767 67.410,45.238 67.446 C 40.199 67.515,39.996 67.568,38.938 69.072 L 38.375 69.872 38.282 74.105 L 38.189 78.338 33.678 78.388 L 29.168 78.438 28.621 77.734 C 28.113 77.082,27.357 76.010,25.542 73.371 L 24.823 72.325 25.530 70.943 C 28.908 64.340,20.998 57.631,15.800 62.691 C 10.632 67.721,15.106 75.660,22.222 74.085 C 22.853 73.946,22.899 73.974,23.529 74.885 C 23.889 75.405,24.477 76.243,24.837 76.748 C 25.196 77.253,25.950 78.322,26.512 79.123 C 27.878 81.069,27.432 80.940,33.147 81.046 L 38.189 81.139 38.189 85.341 L 38.189 89.542 32.555 89.592 L 26.921 89.641 26.467 88.650 C 23.935 83.119,16.334 84.921,16.407 91.035 C 16.476 96.849,24.707 98.484,26.503 93.039 L 26.766 92.245 32.477 92.294 L 38.189 92.344 38.189 96.452 L 38.189 100.560 33.033 100.610 C 28.411 100.654,27.848 100.693,27.595 100.983 C 27.310 101.312,27.057 101.670,24.396 105.509 C 23.577 106.690,22.889 107.682,22.866 107.714 C 22.843 107.745,22.289 107.631,21.636 107.461 C 14.191 105.518,10.405 116.493,17.312 119.993 C 23.249 123.001,28.763 115.760,25.078 109.795 C 24.789 109.327,24.818 109.270,26.893 106.294 L 29.003 103.268 33.630 103.268 L 38.257 103.268 38.316 107.533 L 38.375 111.798 38.891 112.542 C 39.891 113.984,40.322 114.099,44.703 114.099 L 48.553 114.099 48.553 119.004 L 48.553 123.909 45.915 125.960 C 42.568 128.563,42.870 128.415,42.051 127.850 C 35.620 123.409,28.476 132.649,34.039 138.211 C 38.738 142.911,46.448 137.958,44.524 131.477 C 44.362 130.932,44.299 130.425,44.384 130.352 C 44.468 130.278,45.882 129.186,47.526 127.926 C 51.591 124.808,51.158 125.814,51.163 119.464 L 51.167 114.091 55.042 114.142 L 58.917 114.192 58.966 120.185 L 59.015 126.178 58.282 126.509 C 53.002 128.890,54.579 137.138,60.317 137.157 C 65.962 137.176,67.608 128.885,62.418 126.573 L 61.625 126.220 61.625 120.156 L 61.625 114.092 65.593 114.142 L 69.561 114.192 69.611 119.657 L 69.660 125.121 71.571 126.628 C 72.623 127.457,73.708 128.318,73.984 128.540 C 74.259 128.763,74.915 129.281,75.441 129.692 C 76.248 130.321,76.382 130.512,76.294 130.906 C 75.772 133.246,75.780 134.192,76.337 135.761 C 78.829 142.778,88.675 140.742,88.586 133.229 C 88.522 127.816,82.235 124.639,78.374 128.069 C 77.954 128.442,78.055 128.503,74.695 125.843 L 72.076 123.769 72.126 118.981 L 72.176 114.192 76.220 114.099 L 80.265 114.006 80.969 113.435 C 82.417 112.263,82.600 111.106,82.541 103.501 C 82.540 103.321,83.577 103.268,87.106 103.268 L 91.673 103.268 93.016 105.182 C 93.755 106.235,94.683 107.534,95.079 108.069 C 95.805 109.051,95.955 109.572,95.609 109.918 C 95.169 110.359,94.654 111.664,94.460 112.830 C 94.145 114.731,94.463 116.079,95.749 118.279 C 95.876 118.496,95.981 119.066,95.982 119.544 L 95.985 120.414 97.993 120.478 C 99.097 120.513,108.992 120.496,119.981 120.441 L 139.963 120.341 141.083 119.924 C 146.109 118.054,149.365 114.100,150.417 108.590 C 151.362 103.637,151.751 87.532,151.110 79.925 C 150.096 67.902,146.913 63.317,138.668 62.000 C 137.958 61.887,137.287 61.735,137.176 61.663 C 137.065 61.590,129.244 61.481,119.795 61.419 C 106.593 61.333,102.366 61.250,101.542 61.061 C 100.607 60.847,100.326 60.856,99.351 61.127 C 98.735 61.298,97.726 61.438,97.108 61.438 L 95.985 61.438 95.985 62.170 C 95.985 62.666,95.731 63.390,95.196 64.420 C 94.068 66.589,94.038 68.666,95.102 70.819 C 95.485 71.594,95.798 72.284,95.798 72.352 C 95.798 72.420,94.868 73.816,93.731 75.454 L 91.664 78.431 87.102 78.431 C 83.576 78.431,82.540 78.378,82.542 78.198 C 82.624 67.756,82.426 67.428,76.050 67.418 L 73.203 67.414 73.203 62.591 L 73.203 57.769 76.140 55.506 L 79.078 53.243 79.670 53.694 C 85.857 58.414,93.232 49.414,87.931 43.613 C 83.113 38.341,75.589 43.466,77.389 50.794 C 77.493 51.218,77.239 51.464,74.595 53.501 C 72.996 54.734,71.503 55.884,71.278 56.058 C 70.877 56.367,70.866 56.489,70.775 61.847 L 70.682 67.320 66.667 67.320 L 62.652 67.320 62.652 61.438 L 62.652 55.556 63.633 55.030 C 69.283 52.002,66.371 43.169,60.189 44.580 C 55.390 45.674,54.735 52.734,59.221 55.007 L 60.131 55.468 60.131 61.441 L 60.131 67.414 56.209 67.414 L 52.288 67.414 52.288 62.111 L 52.288 56.809 51.774 56.273 C 51.492 55.978,50.555 55.192,49.692 54.526 C 46.017 51.687,45.358 51.116,45.457 50.857 C 47.339 45.953,43.291 40.680,38.375 41.633 M41.267 44.536 C 43.929 45.913,44.208 49.687,41.791 51.605 C 39.390 53.509,35.668 51.483,35.668 48.274 C 35.668 45.232,38.699 43.208,41.267 44.536 M85.366 44.719 C 88.805 46.995,87.264 52.478,83.248 52.253 C 81.673 52.165,80.639 51.510,79.945 50.162 C 78.100 46.577,82.103 42.560,85.366 44.719 M62.483 47.228 C 65.326 48.519,64.459 52.848,61.357 52.848 C 58.382 52.848,57.562 48.809,60.230 47.298 C 61.129 46.789,61.491 46.777,62.483 47.228 M161.531 90.943 L 161.531 120.448 184.594 120.448 L 207.656 120.448 207.656 113.912 L 207.656 107.376 190.850 107.376 L 174.043 107.376 174.043 101.961 L 174.043 96.545 189.823 96.545 L 205.602 96.545 205.602 90.756 L 205.602 84.967 189.823 84.967 L 174.043 84.967 174.043 79.925 L 174.043 74.883 190.850 74.883 L 207.656 74.883 207.656 68.161 L 207.656 61.438 184.594 61.438 L 161.531 61.438 161.531 90.943 M214.106 62.232 C 214.359 63.032,215.351 65.724,215.775 66.760 C 215.901 67.068,216.321 68.203,216.707 69.281 C 217.094 70.359,217.514 71.494,217.641 71.802 C 217.768 72.110,218.188 73.245,218.575 74.323 C 218.961 75.401,219.381 76.536,219.508 76.844 C 219.635 77.152,220.054 78.287,220.439 79.365 C 220.824 80.444,221.213 81.494,221.304 81.699 C 221.395 81.905,223.236 86.863,225.397 92.717 C 227.557 98.571,229.399 103.529,229.490 103.735 C 229.580 103.940,229.970 104.991,230.355 106.069 C 230.739 107.148,231.159 108.282,231.286 108.590 C 231.414 108.898,231.748 109.781,232.029 110.551 C 232.310 111.321,232.704 112.372,232.905 112.885 C 233.105 113.399,233.356 114.113,233.461 114.472 C 233.566 114.832,233.719 115.210,233.800 115.313 C 233.882 115.415,234.036 115.794,234.143 116.153 C 234.250 116.513,234.482 117.185,234.658 117.647 C 234.833 118.109,235.120 118.908,235.295 119.421 L 235.612 120.355 243.670 120.403 C 248.834 120.435,251.727 120.387,251.727 120.269 C 251.727 120.169,252.106 119.117,252.568 117.933 C 253.030 116.749,253.789 114.792,254.254 113.585 C 254.719 112.379,255.176 111.223,255.271 111.018 C 255.479 110.564,255.862 109.600,257.235 106.069 C 257.814 104.580,258.364 103.193,258.457 102.988 C 258.550 102.782,259.093 101.396,259.664 99.907 C 260.235 98.417,260.780 97.031,260.875 96.825 C 260.970 96.620,261.520 95.233,262.096 93.744 C 263.287 90.667,263.813 89.334,264.050 88.796 C 264.140 88.590,264.590 87.456,265.051 86.275 C 265.511 85.093,266.530 82.488,267.315 80.486 C 268.101 78.483,268.923 76.382,269.143 75.817 C 269.363 75.252,269.610 74.710,269.692 74.613 C 269.774 74.515,269.841 74.321,269.841 74.182 C 269.841 74.043,269.994 73.577,270.182 73.146 C 270.652 72.064,270.963 71.285,272.177 68.161 C 272.755 66.671,273.303 65.285,273.395 65.079 C 273.486 64.874,273.848 63.971,274.198 63.072 L 274.834 61.438 267.890 61.438 L 260.947 61.438 260.512 62.698 C 260.272 63.392,260.005 64.039,259.917 64.136 C 259.829 64.234,259.757 64.444,259.756 64.603 C 259.755 64.762,259.647 65.103,259.515 65.359 C 259.383 65.616,259.035 66.499,258.743 67.320 C 258.450 68.142,258.138 68.894,258.050 68.992 C 257.962 69.089,257.889 69.299,257.889 69.458 C 257.888 69.618,257.779 69.958,257.647 70.215 C 257.515 70.472,257.168 71.354,256.875 72.176 C 256.583 72.997,256.271 73.749,256.183 73.847 C 256.095 73.944,256.022 74.155,256.021 74.314 C 256.021 74.473,255.912 74.813,255.780 75.070 C 255.648 75.327,255.300 76.209,255.008 77.031 C 254.715 77.852,254.404 78.605,254.315 78.702 C 254.227 78.800,254.155 78.997,254.155 79.141 C 254.155 79.284,254.033 79.667,253.884 79.990 C 253.734 80.314,253.303 81.419,252.926 82.446 C 252.549 83.473,252.083 84.666,251.891 85.097 C 251.698 85.528,251.541 85.939,251.541 86.011 C 251.541 86.165,250.330 89.287,249.943 90.131 C 249.795 90.455,249.673 90.801,249.673 90.901 C 249.673 91.001,249.500 91.492,249.288 91.993 C 248.781 93.190,248.674 93.460,248.221 94.678 C 247.832 95.723,247.283 97.164,246.441 99.346 C 246.184 100.014,245.667 101.359,245.292 102.334 C 243.720 106.432,243.798 106.376,242.962 103.968 C 242.632 103.018,242.283 102.073,242.187 101.867 C 242.090 101.662,241.935 101.242,241.841 100.934 C 241.748 100.626,241.491 99.911,241.270 99.346 C 241.049 98.782,240.792 98.067,240.698 97.759 C 240.605 97.451,240.452 97.031,240.357 96.825 C 240.263 96.620,239.289 93.973,238.191 90.943 C 236.021 84.949,235.760 84.246,235.369 83.327 C 235.225 82.990,235.105 82.612,235.101 82.487 C 235.098 82.362,234.932 81.923,234.734 81.513 C 234.535 81.102,234.370 80.686,234.367 80.588 C 234.360 80.387,230.741 70.449,230.332 69.508 C 230.185 69.171,230.063 68.793,230.059 68.668 C 230.056 68.543,229.890 68.105,229.692 67.694 C 229.493 67.283,229.328 66.805,229.325 66.631 C 229.321 66.457,229.241 66.267,229.146 66.209 C 229.051 66.150,228.914 65.830,228.841 65.498 C 228.768 65.166,228.600 64.642,228.468 64.333 C 228.336 64.025,228.043 63.247,227.817 62.605 L 227.405 61.438 220.630 61.438 L 213.855 61.438 214.106 62.232 M277.591 61.831 C 277.796 62.077,278.007 62.320,278.058 62.372 C 278.313 62.627,283.534 68.878,285.621 71.427 C 286.443 72.431,287.241 73.398,287.395 73.576 C 287.549 73.755,288.347 74.723,289.169 75.728 C 289.991 76.733,291.088 78.068,291.607 78.694 C 293.021 80.398,295.234 83.085,296.078 84.123 C 296.489 84.627,297.085 85.339,297.403 85.704 C 297.721 86.069,298.393 86.878,298.897 87.502 C 299.401 88.126,300.423 89.360,301.167 90.245 C 302.772 92.153,302.740 91.910,301.556 93.184 C 301.031 93.749,299.668 95.219,298.528 96.452 C 296.364 98.792,293.479 101.796,288.398 106.999 C 284.428 111.064,283.012 112.536,279.946 115.780 C 276.022 119.931,275.625 120.380,275.757 120.512 C 275.824 120.580,280.886 120.635,287.006 120.634 L 298.133 120.634 301.214 117.905 C 306.212 113.478,310.569 109.327,313.256 106.433 C 314.845 104.721,314.623 104.717,316.674 106.490 C 321.487 110.650,324.375 112.795,330.065 116.433 C 333.854 118.855,341.316 122.553,346.125 124.391 C 346.741 124.627,347.330 124.878,347.432 124.949 C 347.535 125.020,347.913 125.164,348.273 125.269 C 348.632 125.374,349.388 125.645,349.953 125.871 C 350.518 126.096,351.569 126.390,352.288 126.525 C 353.007 126.659,354.309 126.900,355.182 127.060 C 356.055 127.220,357.736 127.529,358.917 127.746 C 369.182 129.634,379.645 131.102,382.633 131.075 C 383.574 131.066,382.853 130.807,381.419 130.638 C 380.296 130.505,375.699 129.437,373.950 128.902 C 370.989 127.996,367.870 126.868,365.453 125.831 C 364.991 125.632,364.444 125.399,364.239 125.312 C 359.751 123.409,351.479 118.808,347.152 115.806 C 346.485 115.342,345.476 114.645,344.911 114.255 C 339.120 110.261,330.445 102.417,324.645 95.929 C 323.057 94.154,323.124 94.357,323.809 93.358 C 324.363 92.553,326.400 89.498,332.395 80.486 C 337.462 72.868,341.344 67.476,344.427 63.772 L 345.671 62.278 343.751 62.161 C 342.694 62.097,338.553 62.035,334.547 62.024 L 327.264 62.005 325.303 64.361 C 324.225 65.656,323.043 67.070,322.677 67.503 C 322.311 67.936,321.264 69.249,320.350 70.420 C 319.437 71.591,318.640 72.591,318.579 72.642 C 318.518 72.694,317.390 74.114,316.072 75.798 C 313.588 78.971,313.520 79.056,312.688 80.073 C 312.032 80.875,312.487 81.311,307.647 75.257 C 305.307 72.330,303.075 69.556,302.686 69.094 C 302.297 68.632,301.424 67.582,300.745 66.760 C 300.065 65.938,298.822 64.448,297.981 63.449 L 296.452 61.632 291.674 61.628 C 289.046 61.626,284.718 61.570,282.056 61.504 L 277.218 61.383 277.591 61.831 M21.818 64.037 C 22.211 64.237,22.743 64.680,23.000 65.020 C 26.108 69.138,20.598 74.333,17.207 70.482 C 14.233 67.102,17.867 62.021,21.818 64.037 M79.725 70.520 C 80.331 71.290,80.337 110.426,79.731 111.076 L 79.351 111.485 60.372 111.485 C 42.974 111.485,41.364 111.459,41.051 111.176 C 40.724 110.880,40.710 110.001,40.710 90.738 L 40.710 70.609 41.125 70.319 C 41.494 70.060,43.636 70.028,60.439 70.028 L 79.338 70.028 79.725 70.520 M58.357 73.838 C 57.340 74.287,56.745 75.292,56.503 76.969 C 56.364 77.938,56.234 78.089,55.242 78.440 C 54.603 78.666,54.513 78.651,53.935 78.212 C 51.843 76.621,50.816 76.674,49.068 78.465 C 46.976 80.607,46.880 81.084,48.077 83.372 C 48.863 84.875,48.893 84.989,48.638 85.478 C 48.490 85.762,48.368 86.090,48.367 86.207 C 48.367 86.324,47.799 86.568,47.106 86.749 C 44.541 87.420,44.071 88.045,44.071 90.785 C 44.072 93.493,44.733 94.392,47.059 94.850 C 48.163 95.067,48.215 95.103,48.555 95.896 L 48.906 96.717 48.133 98.052 C 46.878 100.220,46.992 100.961,48.893 102.970 C 50.837 105.026,51.487 105.085,53.911 103.427 L 54.695 102.891 55.405 103.219 C 56.306 103.636,56.322 103.661,56.590 105.081 C 57.044 107.487,57.721 107.970,60.539 107.896 C 63.064 107.829,64.239 106.773,64.239 104.569 C 64.239 103.934,64.471 103.628,65.232 103.261 L 65.992 102.893 67.099 103.637 C 69.092 104.974,69.971 104.890,71.635 103.202 C 73.759 101.049,73.880 100.070,72.326 97.608 C 71.886 96.912,71.866 96.792,72.081 96.183 C 72.426 95.209,72.565 95.095,73.731 94.839 C 76.102 94.317,76.561 93.669,76.562 90.850 C 76.563 87.906,76.304 87.556,73.498 86.704 C 71.886 86.214,71.543 85.302,72.428 83.863 C 73.857 81.541,73.699 80.464,71.638 78.466 C 69.870 76.751,69.244 76.670,67.294 77.902 L 66.063 78.679 65.293 78.399 C 64.661 78.168,64.496 78.004,64.371 77.481 C 63.721 74.778,63.313 74.073,62.223 73.770 C 61.259 73.502,59.028 73.541,58.357 73.838 M133.142 75.922 C 135.424 76.398,137.246 77.662,137.567 78.992 C 137.629 79.248,137.747 79.544,137.828 79.649 C 139.575 81.894,139.029 100.349,137.124 103.419 C 135.429 106.152,134.815 106.256,120.309 106.256 L 108.497 106.256 108.497 90.943 L 108.497 75.630 120.121 75.630 C 129.930 75.631,131.964 75.676,133.142 75.922 M95.985 81.559 L 95.984 86.181 95.413 86.835 C 95.099 87.194,94.593 87.972,94.290 88.562 L 93.739 89.636 88.244 89.636 C 84.882 89.636,82.705 89.565,82.636 89.454 C 82.553 89.320,82.484 83.631,82.536 81.235 C 82.538 81.121,84.481 81.033,87.712 81.002 L 92.885 80.952 93.455 80.192 C 93.768 79.773,94.423 78.870,94.910 78.184 C 95.398 77.498,95.839 76.937,95.891 76.937 C 95.943 76.937,95.985 79.017,95.985 81.559 M62.023 87.757 C 64.336 89.138,64.120 93.009,61.673 94.031 C 58.814 95.226,56.053 92.308,57.307 89.418 C 58.165 87.441,60.258 86.704,62.023 87.757 M23.074 88.336 C 23.954 88.880,24.542 90.175,24.396 91.245 C 23.891 94.927,18.861 94.554,18.861 90.834 C 18.861 88.577,21.210 87.184,23.074 88.336 M94.282 93.176 C 94.524 93.685,95.006 94.434,95.353 94.840 L 95.985 95.578 95.985 100.076 C 95.985 105.068,95.992 105.048,94.861 103.408 C 94.418 102.766,93.770 101.884,93.421 101.447 L 92.785 100.654 87.767 100.654 C 84.518 100.654,82.706 100.586,82.629 100.461 C 82.542 100.319,82.483 95.182,82.537 92.390 C 82.538 92.313,85.083 92.250,88.191 92.250 L 93.843 92.250 94.282 93.176 M21.582 110.157 C 23.951 111.233,24.664 114.661,22.930 116.636 C 20.774 119.091,16.959 118.117,16.244 114.929 C 15.498 111.600,18.618 108.811,21.582 110.157 M61.784 129.176 C 64.160 130.950,62.948 134.858,60.104 134.593 C 58.095 134.406,56.882 132.115,57.825 130.290 C 58.598 128.794,60.540 128.248,61.784 129.176 M39.608 129.443 C 41.306 130.026,42.300 131.511,42.289 133.448 C 42.265 137.775,36.680 139.038,34.899 135.118 C 33.475 131.981,36.474 128.367,39.608 129.443 M83.379 129.434 C 85.912 130.137,86.973 133.665,85.333 135.929 C 84.265 137.404,81.956 137.935,80.486 137.044 C 76.400 134.570,78.833 128.172,83.379 129.434 M383.613 131.221 C 383.793 131.268,384.087 131.268,384.267 131.221 C 384.447 131.174,384.300 131.136,383.940 131.136 C 383.581 131.136,383.434 131.174,383.613 131.221 " stroke="none" fill="#711b63" fill-rule="evenodd"></path><path id="path1" d="M0.000 93.371 L 0.000 186.741 200.000 186.741 L 400.000 186.741 400.000 93.371 L 400.000 0.000 200.000 0.000 L 0.000 0.000 0.000 93.371 M41.743 41.678 C 45.166 42.988,47.046 47.335,45.685 50.794 C 45.606 50.992,46.402 51.713,48.417 53.270 C 52.077 56.097,52.062 56.083,52.285 56.669 C 52.396 56.961,52.474 59.251,52.474 62.197 L 52.474 67.227 56.209 67.227 L 59.944 67.227 59.944 61.382 L 59.944 55.537 59.312 55.309 C 53.586 53.238,55.593 44.028,61.714 44.286 C 67.454 44.528,68.900 53.418,63.506 55.299 L 62.932 55.499 62.932 61.367 L 62.932 67.235 66.668 67.184 L 70.404 67.134 70.450 61.887 C 70.487 57.545,70.543 56.581,70.775 56.301 C 71.036 55.986,73.818 53.767,75.790 52.300 C 77.333 51.154,77.405 51.056,77.142 50.477 C 76.087 48.163,77.298 44.231,79.573 42.583 C 85.366 38.387,92.444 45.140,89.103 51.676 C 87.358 55.089,82.704 56.264,79.776 54.032 C 79.014 53.450,79.238 53.342,76.050 55.826 L 73.389 57.899 73.389 62.551 L 73.389 67.203 76.735 67.262 L 80.081 67.320 80.890 67.882 C 82.491 68.993,82.726 69.822,82.726 74.357 L 82.726 78.245 87.105 78.245 L 91.484 78.245 93.237 75.770 C 95.947 71.945,95.738 72.545,94.916 70.940 C 93.874 68.902,93.869 66.518,94.904 64.426 C 95.318 63.588,95.618 62.688,95.651 62.185 L 95.705 61.345 97.293 61.236 C 98.166 61.176,99.064 61.029,99.288 60.909 C 99.848 60.609,101.310 60.639,102.411 60.973 C 103.192 61.210,105.684 61.251,119.258 61.251 C 132.516 61.251,135.527 61.299,137.203 61.535 C 147.368 62.971,150.515 67.382,151.439 81.495 C 151.945 89.212,151.623 102.230,150.788 107.784 C 149.901 113.691,146.402 118.195,141.199 120.126 C 140.149 120.515,104.027 120.938,97.666 120.635 L 95.705 120.542 95.612 119.300 C 95.557 118.569,95.398 117.917,95.226 117.713 C 93.933 116.179,93.795 112.923,94.930 110.687 L 95.649 109.271 93.742 106.542 C 92.694 105.042,91.734 103.712,91.610 103.587 C 91.443 103.420,90.256 103.375,87.055 103.415 L 82.726 103.468 82.726 107.349 C 82.726 113.839,82.102 114.469,75.677 114.471 L 72.269 114.472 72.271 119.094 L 72.273 123.716 75.082 125.891 L 77.891 128.065 78.951 127.427 C 84.247 124.238,90.514 129.569,88.495 135.547 C 86.813 140.528,81.174 141.934,77.607 138.261 C 76.100 136.709,75.198 133.597,75.790 131.992 C 76.329 130.528,76.117 130.293,70.482 126.102 C 69.310 125.230,69.250 124.878,69.317 119.281 L 69.374 114.472 65.546 114.472 L 61.718 114.472 61.752 120.215 L 61.786 125.957 62.499 126.319 C 67.841 129.033,66.192 137.438,60.317 137.438 C 54.418 137.438,52.739 128.503,58.217 126.254 L 58.824 126.005 58.824 120.239 L 58.824 114.472 55.089 114.472 L 51.354 114.472 51.354 119.660 C 51.354 125.837,51.755 124.919,47.688 128.050 L 44.601 130.426 44.756 131.273 C 45.564 135.680,43.664 139.129,39.861 140.159 C 33.584 141.858,29.169 133.091,33.935 128.392 C 36.260 126.101,39.488 125.838,42.300 127.711 L 42.862 128.085 44.540 126.772 C 45.463 126.050,46.387 125.317,46.592 125.145 C 46.797 124.972,47.278 124.593,47.660 124.302 L 48.354 123.775 48.407 119.139 L 48.459 114.504 44.617 114.441 C 40.295 114.371,39.929 114.262,38.717 112.674 L 38.189 111.982 38.132 107.715 L 38.076 103.448 33.567 103.498 L 29.059 103.548 27.928 105.175 C 27.306 106.070,26.388 107.388,25.889 108.103 L 24.980 109.405 25.373 109.957 C 28.379 114.178,25.616 120.454,20.608 120.781 C 14.257 121.196,10.936 113.508,15.490 108.933 C 17.145 107.270,20.597 106.464,22.213 107.362 C 22.619 107.587,22.698 107.576,22.921 107.263 C 23.059 107.068,23.876 105.901,24.736 104.669 C 28.169 99.749,27.138 100.280,33.249 100.280 L 38.095 100.280 38.095 96.359 L 38.095 92.437 32.539 92.437 L 26.982 92.437 26.550 93.379 C 24.074 98.775,16.594 97.189,16.290 91.204 C 15.960 84.674,24.606 82.604,26.733 88.704 L 26.927 89.262 32.515 89.262 L 38.103 89.262 38.052 85.294 L 38.002 81.326 32.975 81.276 C 29.719 81.244,27.863 81.155,27.705 81.024 C 27.572 80.913,26.934 80.068,26.289 79.147 C 25.644 78.225,24.823 77.060,24.463 76.558 C 24.104 76.056,23.568 75.298,23.273 74.875 C 22.840 74.255,22.659 74.129,22.339 74.230 C 18.367 75.477,14.984 73.603,13.616 69.397 C 12.064 64.626,17.111 59.429,21.769 61.002 C 26.209 62.501,27.957 67.520,25.449 71.572 L 25.014 72.277 25.890 73.533 C 26.372 74.224,26.941 75.042,27.155 75.350 C 27.369 75.658,27.588 75.952,27.640 76.004 C 27.693 76.055,28.064 76.580,28.465 77.171 L 29.194 78.245 33.644 78.245 L 38.095 78.245 38.095 74.180 C 38.095 67.577,38.461 67.230,45.428 67.228 L 49.493 67.227 49.443 62.519 L 49.393 57.811 46.692 55.703 C 44.197 53.755,43.511 53.335,43.511 53.756 C 43.511 54.254,40.970 55.169,39.589 55.167 C 33.211 55.161,30.592 46.404,35.819 42.560 C 37.596 41.253,39.782 40.928,41.743 41.678 M38.340 44.564 C 36.094 45.360,35.165 48.411,36.547 50.459 C 38.608 53.517,43.184 52.018,43.184 48.285 C 43.184 45.459,40.858 43.672,38.340 44.564 M82.496 44.435 C 78.315 45.761,79.119 52.178,83.455 52.087 C 88.037 51.990,88.300 44.945,83.742 44.367 C 83.338 44.315,82.777 44.346,82.496 44.435 M60.126 47.567 C 58.148 48.942,58.586 52.168,60.807 52.584 C 62.881 52.973,64.433 51.221,63.869 49.126 C 63.447 47.559,61.376 46.697,60.126 47.567 M207.937 68.161 L 207.937 74.977 191.083 75.024 L 174.230 75.072 174.230 79.926 L 174.230 84.781 189.916 84.781 L 205.602 84.781 205.602 90.756 L 205.602 96.732 189.916 96.732 L 174.230 96.732 174.230 101.960 L 174.230 107.188 191.083 107.235 L 207.937 107.283 207.937 113.912 L 207.937 120.542 184.641 120.589 L 161.345 120.636 161.345 90.943 L 161.345 61.250 184.641 61.297 L 207.937 61.345 207.937 68.161 M227.592 61.485 C 227.695 61.613,227.997 62.348,228.263 63.119 C 228.529 63.889,228.923 64.981,229.139 65.546 C 229.355 66.111,229.618 66.825,229.724 67.134 C 229.829 67.442,230.033 67.959,230.177 68.282 C 230.321 68.606,230.439 68.932,230.439 69.008 C 230.439 69.160,233.852 78.510,234.850 81.091 C 235.197 81.989,235.481 82.846,235.481 82.994 C 235.481 83.143,235.558 83.313,235.653 83.371 C 235.748 83.430,235.885 83.749,235.958 84.082 C 236.031 84.414,236.201 84.938,236.336 85.247 C 236.471 85.555,237.603 88.623,238.851 92.063 C 240.100 95.504,241.239 98.584,241.382 98.908 C 241.526 99.231,241.643 99.586,241.643 99.695 C 241.643 99.804,241.762 100.170,241.907 100.507 C 242.053 100.844,242.443 101.877,242.775 102.801 C 243.815 105.699,243.676 105.437,243.955 105.027 C 244.088 104.830,244.435 103.996,244.725 103.175 C 245.015 102.353,245.322 101.601,245.408 101.503 C 245.494 101.406,245.565 101.196,245.566 101.036 C 245.567 100.877,245.677 100.537,245.811 100.280 C 245.944 100.023,246.294 99.141,246.587 98.319 C 246.880 97.498,247.190 96.746,247.276 96.648 C 247.362 96.550,247.432 96.353,247.432 96.209 C 247.432 96.066,247.554 95.683,247.704 95.360 C 247.853 95.036,248.284 93.931,248.661 92.904 C 249.038 91.877,249.491 90.700,249.668 90.289 C 249.844 89.879,250.310 88.660,250.702 87.582 C 251.094 86.503,251.477 85.537,251.552 85.434 C 251.627 85.331,251.775 84.953,251.881 84.594 C 251.987 84.234,252.546 82.722,253.124 81.232 C 253.701 79.743,254.544 77.558,254.995 76.377 C 255.447 75.196,256.287 73.011,256.863 71.522 C 257.438 70.033,258.277 67.848,258.727 66.667 C 259.177 65.486,259.828 63.805,260.172 62.932 L 260.799 61.345 267.783 61.296 C 274.838 61.246,275.271 61.285,274.900 61.929 C 274.790 62.121,274.234 63.497,273.666 64.986 C 273.097 66.475,272.552 67.862,272.456 68.067 C 272.359 68.273,271.892 69.449,271.418 70.682 C 270.945 71.914,269.858 74.687,269.004 76.844 C 266.375 83.483,265.057 86.834,264.158 89.169 C 263.683 90.401,263.218 91.578,263.123 91.783 C 262.899 92.271,262.441 93.429,261.162 96.732 C 260.586 98.221,260.036 99.608,259.941 99.813 C 259.846 100.019,259.379 101.195,258.905 102.428 C 258.430 103.660,257.495 106.055,256.827 107.750 C 256.158 109.444,255.400 111.377,255.141 112.045 C 254.882 112.712,254.558 113.511,254.421 113.819 C 254.284 114.127,253.704 115.598,253.133 117.087 C 252.561 118.576,252.013 119.984,251.914 120.215 L 251.735 120.635 243.624 120.635 L 235.514 120.635 234.937 119.125 C 234.620 118.295,234.360 117.566,234.360 117.506 C 234.360 117.446,234.138 116.843,233.867 116.168 C 233.596 115.492,233.103 114.183,232.771 113.259 C 231.770 110.470,230.600 107.306,230.423 106.909 C 230.063 106.098,213.632 61.595,213.632 61.429 C 213.632 61.140,227.360 61.195,227.592 61.485 M296.545 61.534 C 296.787 61.640,298.860 64.047,301.027 66.738 C 301.387 67.184,303.279 69.514,305.233 71.916 C 307.187 74.319,309.533 77.240,310.447 78.409 L 312.107 80.534 312.495 79.996 C 312.709 79.700,313.425 78.786,314.086 77.965 C 314.748 77.143,316.319 75.154,317.577 73.545 C 318.835 71.937,319.992 70.466,320.147 70.277 C 320.303 70.089,321.415 68.716,322.619 67.227 C 323.823 65.738,325.347 63.910,326.006 63.165 L 327.204 61.811 336.618 61.811 C 342.981 61.811,346.032 61.874,346.032 62.005 C 346.032 62.163,343.779 65.044,343.407 65.359 C 343.076 65.641,338.977 71.214,336.924 74.174 C 333.559 79.024,323.623 94.049,323.623 94.286 C 323.623 94.728,330.625 102.009,334.174 105.258 C 336.909 107.762,341.334 111.399,343.679 113.072 C 343.966 113.277,344.570 113.721,345.021 114.059 C 346.961 115.513,352.700 119.171,354.902 120.358 C 355.621 120.746,356.293 121.127,356.396 121.205 C 356.818 121.527,362.827 124.459,364.856 125.334 C 372.861 128.784,380.742 130.772,388.329 131.254 L 390.196 131.373 388.292 131.521 C 383.899 131.861,372.730 130.519,359.104 128.013 C 356.245 127.488,354.365 127.148,352.915 126.896 C 351.533 126.655,349.341 125.978,347.806 125.317 C 347.077 125.004,346.143 124.627,344.631 124.036 C 341.446 122.790,335.641 119.958,332.026 117.885 C 330.584 117.058,325.826 113.971,324.625 113.083 C 324.200 112.769,323.662 112.386,323.429 112.232 C 322.596 111.680,318.084 108.038,316.476 106.619 L 314.838 105.173 310.780 109.221 C 306.925 113.067,305.496 114.410,301.401 118.036 C 300.425 118.900,299.332 119.879,298.973 120.213 L 298.319 120.818 286.788 120.820 C 279.516 120.821,275.257 120.755,275.257 120.642 C 275.257 120.396,278.601 116.779,282.946 112.327 C 284.351 110.888,285.681 109.500,285.902 109.244 C 286.124 108.987,287.958 107.091,289.978 105.031 C 295.362 99.540,296.765 98.072,299.671 94.880 L 302.293 92.001 301.613 91.145 C 301.240 90.674,299.259 88.273,297.212 85.808 C 291.984 79.512,291.722 79.196,290.545 77.757 C 289.966 77.049,288.802 75.630,287.958 74.603 C 287.113 73.576,286.146 72.400,285.809 71.989 C 285.472 71.578,284.325 70.200,283.261 68.926 C 282.197 67.652,281.118 66.350,280.863 66.031 C 280.609 65.713,279.663 64.590,278.762 63.535 C 277.861 62.480,277.124 61.522,277.124 61.405 C 277.124 61.173,296.010 61.298,296.545 61.534 M18.554 64.041 C 15.981 65.142,15.600 69.256,17.921 70.864 C 21.966 73.667,26.027 67.610,22.165 64.536 C 21.402 63.928,19.444 63.660,18.554 64.041 M41.311 70.505 L 40.896 70.796 40.896 90.754 C 40.896 108.648,40.927 110.741,41.190 111.004 C 41.577 111.392,79.129 111.460,79.514 111.074 C 79.930 110.659,79.829 70.791,79.412 70.475 C 78.879 70.070,41.890 70.100,41.311 70.505 M63.223 74.154 C 63.741 74.672,63.976 75.152,64.309 76.369 C 64.847 78.343,65.591 78.843,66.715 77.986 C 68.902 76.318,69.934 76.406,71.928 78.430 C 73.913 80.444,74.064 81.419,72.741 83.676 C 71.722 85.414,72.057 86.235,73.947 86.634 C 76.164 87.101,76.937 88.190,76.937 90.845 C 76.937 93.546,75.976 94.732,73.459 95.139 C 72.800 95.245,72.642 95.364,72.378 95.951 L 72.068 96.639 72.822 98.096 C 74.009 100.390,73.865 101.184,71.895 103.194 C 70.062 105.065,69.358 105.192,67.343 104.015 C 65.898 103.170,65.902 103.171,65.198 103.535 C 64.766 103.758,64.623 104.036,64.324 105.237 C 64.038 106.384,63.825 106.818,63.263 107.398 L 62.559 108.123 60.453 108.123 C 57.486 108.123,56.209 106.955,56.209 104.241 C 56.209 103.831,55.402 103.268,54.815 103.268 C 54.654 103.268,54.069 103.569,53.515 103.937 C 51.566 105.231,50.491 105.032,48.641 103.035 C 46.792 101.037,46.667 100.005,48.010 97.803 C 48.873 96.387,48.574 95.369,47.228 95.142 C 44.649 94.706,43.884 93.723,43.884 90.844 C 43.884 88.076,44.509 87.109,46.596 86.651 C 48.072 86.328,48.110 86.304,48.355 85.561 C 48.577 84.889,48.551 84.782,47.824 83.370 C 46.693 81.174,46.803 80.534,48.643 78.606 C 50.774 76.371,51.481 76.275,53.876 77.892 L 54.748 78.480 55.425 78.123 C 56.017 77.811,56.130 77.638,56.318 76.745 C 56.924 73.870,57.603 73.351,60.646 73.438 L 62.562 73.492 63.223 74.154 M108.683 90.944 L 108.683 106.089 120.775 106.026 C 134.738 105.953,134.958 105.922,136.568 103.789 C 139.230 100.261,139.358 81.146,136.740 78.035 C 135.012 75.981,134.731 75.943,120.682 75.866 L 108.683 75.799 108.683 90.944 M94.521 79.060 C 92.880 81.434,93.508 81.232,87.733 81.232 L 82.726 81.232 82.726 85.247 L 82.726 89.262 88.198 89.262 L 93.670 89.262 94.068 88.443 C 94.287 87.992,94.725 87.328,95.042 86.967 L 95.619 86.311 95.568 81.963 L 95.518 77.616 94.521 79.060 M59.197 87.713 C 58.162 88.090,57.276 89.536,57.276 90.850 C 57.276 94.404,61.848 95.355,63.227 92.087 C 64.311 89.515,61.784 86.772,59.197 87.713 M20.635 88.311 C 18.053 89.456,18.870 93.557,21.679 93.557 C 24.130 93.557,25.157 90.453,23.279 88.722 C 22.751 88.235,21.311 88.011,20.635 88.311 M82.726 96.359 L 82.726 100.280 87.535 100.283 C 93.396 100.286,93.081 100.154,95.115 103.455 L 95.518 104.108 95.568 99.746 L 95.619 95.384 95.008 94.704 C 94.672 94.330,94.238 93.667,94.043 93.231 L 93.687 92.437 88.207 92.437 L 82.726 92.437 82.726 96.359 M18.768 110.269 C 16.960 110.903,15.892 113.191,16.501 115.123 C 17.524 118.367,21.729 118.780,23.247 115.785 C 24.841 112.638,21.997 109.136,18.768 110.269 M59.123 129.275 C 57.316 130.311,57.246 132.864,58.991 134.030 C 60.203 134.839,61.729 134.410,62.509 133.039 C 63.862 130.661,61.428 127.954,59.123 129.275 M37.068 129.766 C 33.288 131.516,34.358 137.162,38.469 137.162 C 39.474 137.162,39.835 137.076,40.367 136.712 C 44.038 134.196,41.057 127.919,37.068 129.766 M80.948 129.761 C 76.738 131.674,78.653 138.026,83.183 137.176 C 84.631 136.904,85.960 135.101,85.947 133.429 C 85.924 130.633,83.287 128.699,80.948 129.761 " stroke="none" fill="#fbfbfb" fill-rule="evenodd"></path><path id="path2" d="M38.375 41.363 C 38.782 41.503,41.527 41.581,41.176 41.443 C 40.971 41.362,40.215 41.297,39.496 41.298 C 38.777 41.299,38.273 41.328,38.375 41.363 M82.676 41.405 C 83.007 41.446,83.595 41.447,83.983 41.406 C 84.370 41.366,84.099 41.332,83.380 41.331 C 82.661 41.330,82.344 41.363,82.676 41.405 M78.795 43.277 L 78.151 43.978 78.852 43.334 C 79.237 42.980,79.552 42.665,79.552 42.634 C 79.552 42.491,79.394 42.626,78.795 43.277 M87.768 43.231 C 88.117 43.590,88.444 43.884,88.495 43.884 C 88.547 43.884,88.304 43.590,87.955 43.231 C 87.607 42.871,87.280 42.577,87.228 42.577 C 87.177 42.577,87.420 42.871,87.768 43.231 M36.870 45.425 L 36.321 46.032 36.928 45.483 C 37.494 44.972,37.621 44.818,37.477 44.818 C 37.444 44.818,37.171 45.091,36.870 45.425 M57.445 45.939 C 57.073 46.350,56.769 46.745,56.769 46.817 C 56.769 46.888,56.833 46.867,56.910 46.769 C 56.987 46.672,57.340 46.277,57.694 45.892 C 58.047 45.507,58.288 45.191,58.228 45.191 C 58.169 45.191,57.816 45.528,57.445 45.939 M86.957 47.339 C 87.020 47.750,87.102 48.121,87.140 48.164 C 87.281 48.324,87.175 47.324,87.013 46.965 C 86.895 46.705,86.878 46.818,86.957 47.339 M61.111 47.188 C 61.291 47.235,61.585 47.235,61.765 47.188 C 61.944 47.141,61.797 47.102,61.438 47.102 C 61.078 47.102,60.931 47.141,61.111 47.188 M76.810 48.179 C 76.810 48.847,76.844 49.120,76.886 48.786 C 76.927 48.452,76.927 47.906,76.886 47.572 C 76.844 47.239,76.810 47.512,76.810 48.179 M89.882 48.179 C 89.882 48.847,89.916 49.120,89.958 48.786 C 89.999 48.452,89.999 47.906,89.958 47.572 C 89.916 47.239,89.882 47.512,89.882 48.179 M62.465 47.366 C 63.416 48.209,63.766 48.455,63.399 48.022 C 63.196 47.781,62.860 47.498,62.654 47.392 C 62.447 47.286,62.362 47.274,62.465 47.366 M79.599 48.273 C 79.601 48.683,79.639 48.830,79.684 48.597 C 79.729 48.365,79.727 48.029,79.680 47.850 C 79.633 47.672,79.597 47.862,79.599 48.273 M58.713 49.394 C 58.576 49.941,58.761 51.107,59.010 51.260 C 59.105 51.319,59.091 51.106,58.980 50.788 C 58.869 50.470,58.825 49.921,58.883 49.568 C 59.003 48.825,58.886 48.705,58.713 49.394 M84.731 51.840 C 84.669 51.901,84.172 52.017,83.626 52.096 C 82.710 52.230,82.691 52.242,83.380 52.256 C 84.025 52.269,85.597 51.784,85.045 51.743 C 84.934 51.734,84.792 51.778,84.731 51.840 M39.589 52.101 L 38.749 52.231 39.496 52.246 C 39.907 52.255,40.411 52.189,40.616 52.101 C 41.049 51.915,40.785 51.915,39.589 52.101 M75.063 52.861 L 74.416 53.435 75.117 52.932 C 75.736 52.488,75.937 52.288,75.763 52.288 C 75.734 52.288,75.419 52.546,75.063 52.861 M60.514 52.671 C 60.763 52.829,62.158 52.932,61.983 52.780 C 61.940 52.743,61.531 52.665,61.074 52.606 C 60.537 52.537,60.339 52.560,60.514 52.671 M56.917 53.315 C 57.024 53.520,57.391 53.940,57.734 54.248 L 58.357 54.808 57.704 54.061 C 57.344 53.651,56.977 53.231,56.887 53.128 C 56.797 53.025,56.811 53.109,56.917 53.315 M65.278 53.922 C 64.875 54.437,64.843 54.524,65.156 54.250 C 65.530 53.923,66.024 53.221,65.880 53.221 C 65.850 53.221,65.580 53.536,65.278 53.922 M39.169 55.220 C 39.400 55.265,39.778 55.265,40.009 55.220 C 40.240 55.176,40.051 55.140,39.589 55.140 C 39.127 55.140,38.938 55.176,39.169 55.220 M83.053 55.220 C 83.284 55.265,83.662 55.265,83.894 55.220 C 84.125 55.176,83.936 55.140,83.473 55.140 C 83.011 55.140,82.822 55.176,83.053 55.220 M62.838 61.391 L 62.838 67.320 66.560 67.371 C 68.607 67.399,70.346 67.357,70.426 67.278 C 70.505 67.198,68.853 67.158,66.754 67.188 L 62.937 67.242 62.888 61.352 L 62.838 55.462 62.838 61.391 M59.988 61.387 L 59.944 67.219 56.256 67.274 L 52.568 67.329 56.262 67.371 C 59.093 67.404,59.977 67.359,60.046 67.178 C 60.096 67.049,60.113 64.381,60.084 61.249 L 60.032 55.556 59.988 61.387 M52.370 62.092 C 52.370 64.967,52.396 66.118,52.427 64.648 C 52.459 63.178,52.459 60.825,52.427 59.419 C 52.395 58.013,52.370 59.216,52.370 62.092 M49.066 57.528 C 49.478 57.997,49.486 58.103,49.486 62.614 L 49.486 67.220 45.331 67.275 L 41.176 67.331 45.378 67.326 L 49.580 67.320 49.630 62.641 L 49.679 57.961 49.163 57.505 L 48.646 57.049 49.066 57.528 M70.483 61.998 C 70.483 64.720,70.509 65.833,70.541 64.472 C 70.573 63.112,70.573 60.885,70.541 59.524 C 70.509 58.163,70.483 59.276,70.483 61.998 M73.283 62.558 C 73.283 65.075,73.310 66.104,73.342 64.846 C 73.374 63.588,73.374 61.529,73.342 60.271 C 73.310 59.013,73.283 60.042,73.283 62.558 M19.374 60.826 C 19.708 60.867,20.254 60.867,20.588 60.826 C 20.922 60.785,20.649 60.751,19.981 60.751 C 19.314 60.751,19.041 60.785,19.374 60.826 M100.047 60.826 C 100.380 60.867,100.927 60.867,101.261 60.826 C 101.594 60.785,101.321 60.751,100.654 60.751 C 99.986 60.751,99.713 60.785,100.047 60.826 M95.710 61.485 C 95.562 61.937,95.520 63.455,95.658 63.370 C 95.735 63.322,95.798 62.872,95.798 62.370 L 95.798 61.456 96.965 61.389 L 98.133 61.323 96.960 61.287 C 96.160 61.263,95.762 61.325,95.710 61.485 M111.345 61.391 C 115.838 61.419,123.191 61.419,127.684 61.391 C 132.178 61.363,128.501 61.341,119.514 61.341 C 110.528 61.341,106.851 61.363,111.345 61.391 M184.547 61.391 L 207.843 61.439 207.843 68.160 L 207.843 74.881 190.990 74.929 L 174.136 74.977 174.132 79.879 L 174.127 84.781 174.181 79.926 L 174.236 75.072 191.086 75.024 L 207.937 74.977 207.937 68.161 L 207.937 61.345 184.594 61.343 L 161.251 61.342 184.547 61.391 M220.448 61.390 C 226.677 61.435,227.381 61.471,227.591 61.755 C 227.719 61.928,227.824 61.986,227.824 61.884 C 227.824 61.286,227.387 61.251,220.458 61.295 L 213.539 61.340 220.448 61.390 M260.813 61.391 C 260.765 61.468,263.921 61.508,267.827 61.480 C 274.559 61.432,274.920 61.446,274.801 61.760 C 274.704 62.013,274.726 62.040,274.893 61.874 C 275.465 61.307,274.837 61.251,267.880 61.251 C 264.041 61.251,260.861 61.314,260.813 61.391 M280.626 61.391 C 282.603 61.421,285.838 61.421,287.815 61.391 C 289.792 61.361,288.175 61.336,284.220 61.336 C 280.266 61.336,278.648 61.361,280.626 61.391 M136.181 61.567 C 136.361 61.614,136.655 61.614,136.835 61.567 C 137.014 61.520,136.867 61.481,136.508 61.481 C 136.148 61.481,136.001 61.520,136.181 61.567 M294.170 61.575 C 294.661 61.614,295.417 61.614,295.851 61.574 C 296.284 61.535,295.882 61.504,294.958 61.504 C 294.034 61.505,293.679 61.537,294.170 61.575 M15.584 62.605 L 14.846 63.399 15.640 62.661 C 16.076 62.255,16.433 61.897,16.433 61.867 C 16.433 61.726,16.271 61.867,15.584 62.605 M139.402 61.998 C 139.608 62.086,139.902 62.159,140.056 62.159 C 140.233 62.159,140.198 62.099,139.963 61.998 C 139.757 61.910,139.463 61.838,139.309 61.838 C 139.132 61.838,139.167 61.897,139.402 61.998 M341.317 61.951 C 343.807 61.981,345.845 62.060,345.845 62.127 C 345.845 62.194,345.698 62.424,345.518 62.637 C 345.192 63.025,345.192 63.025,345.612 62.669 C 346.573 61.855,346.333 61.809,341.410 61.855 L 336.788 61.898 341.317 61.951 M326.319 62.792 L 325.770 63.399 326.377 62.850 C 326.943 62.339,327.070 62.185,326.926 62.185 C 326.894 62.185,326.620 62.458,326.319 62.792 M325.198 64.099 L 324.650 64.706 325.257 64.157 C 325.822 63.646,325.950 63.492,325.805 63.492 C 325.773 63.492,325.500 63.765,325.198 64.099 M19.468 63.813 C 19.750 63.855,20.212 63.855,20.495 63.813 C 20.777 63.770,20.546 63.735,19.981 63.735 C 19.416 63.735,19.185 63.770,19.468 63.813 M21.755 64.172 C 22.706 65.016,23.056 65.262,22.690 64.829 C 22.486 64.588,22.151 64.305,21.944 64.199 C 21.738 64.093,21.653 64.081,21.755 64.172 M146.685 65.546 C 147.087 65.957,147.457 66.293,147.508 66.293 C 147.559 66.293,147.273 65.957,146.872 65.546 C 146.471 65.135,146.101 64.799,146.049 64.799 C 145.998 64.799,146.284 65.135,146.685 65.546 M13.340 66.962 C 13.270 67.432,13.285 68.165,13.375 68.592 C 13.515 69.256,13.539 69.134,13.539 67.736 C 13.539 65.868,13.517 65.782,13.340 66.962 M281.046 66.352 C 281.046 66.384,281.319 66.657,281.653 66.959 L 282.260 67.507 281.711 66.900 C 281.200 66.334,281.046 66.207,281.046 66.352 M26.564 67.694 C 26.566 68.105,26.605 68.251,26.649 68.018 C 26.694 67.786,26.692 67.450,26.646 67.271 C 26.599 67.093,26.562 67.283,26.564 67.694 M74.930 67.366 C 75.829 67.400,77.299 67.400,78.198 67.366 C 79.097 67.332,78.361 67.304,76.564 67.304 C 74.767 67.304,74.031 67.332,74.930 67.366 M230.097 68.544 C 230.206 68.857,230.330 69.079,230.372 69.036 C 230.465 68.944,230.112 67.974,229.986 67.974 C 229.938 67.974,229.987 68.230,230.097 68.544 M340.243 69.281 C 340.023 69.589,339.886 69.841,339.937 69.841 C 339.989 69.841,340.210 69.589,340.430 69.281 C 340.649 68.973,340.786 68.721,340.735 68.721 C 340.684 68.721,340.462 68.973,340.243 69.281 M320.982 69.234 C 320.445 69.883,320.217 70.215,320.310 70.215 C 320.362 70.215,320.628 69.921,320.902 69.561 C 321.411 68.894,321.473 68.642,320.982 69.234 M82.619 74.230 C 82.619 76.387,82.646 77.243,82.679 76.134 C 82.712 75.024,82.712 73.259,82.679 72.212 C 82.646 71.165,82.619 72.073,82.619 74.230 M79.829 90.756 C 79.829 101.797,79.851 106.314,79.879 100.794 C 79.906 95.273,79.906 86.239,79.879 80.719 C 79.851 75.198,79.829 79.715,79.829 90.756 M40.800 90.756 C 40.800 101.592,40.822 106.025,40.850 100.607 C 40.877 95.189,40.877 86.324,40.850 80.906 C 40.822 75.488,40.800 79.921,40.800 90.756 M15.500 72.736 C 15.848 73.095,16.175 73.389,16.226 73.389 C 16.278 73.389,16.035 73.095,15.686 72.736 C 15.338 72.376,15.011 72.082,14.959 72.082 C 14.908 72.082,15.151 72.376,15.500 72.736 M337.442 73.203 C 337.222 73.511,337.085 73.763,337.136 73.763 C 337.187 73.763,337.409 73.511,337.628 73.203 C 337.848 72.894,337.985 72.642,337.934 72.642 C 337.883 72.642,337.661 72.894,337.442 73.203 M59.430 73.527 C 59.918 73.565,60.717 73.565,61.204 73.527 C 61.692 73.488,61.293 73.457,60.317 73.457 C 59.342 73.457,58.943 73.488,59.430 73.527 M19.655 74.639 C 19.834 74.686,20.128 74.686,20.308 74.639 C 20.488 74.592,20.341 74.553,19.981 74.553 C 19.622 74.553,19.475 74.592,19.655 74.639 M307.937 75.444 C 308.366 75.957,308.760 76.377,308.812 76.377 C 308.863 76.377,308.553 75.957,308.123 75.444 C 307.693 74.930,307.299 74.510,307.248 74.510 C 307.197 74.510,307.507 74.930,307.937 75.444 M108.588 90.990 L 108.590 106.162 119.608 106.165 L 130.626 106.167 119.656 106.117 L 108.686 106.066 108.636 90.942 L 108.587 75.817 108.588 90.990 M150.930 76.937 C 150.930 77.297,150.969 77.444,151.016 77.264 C 151.063 77.085,151.063 76.790,151.016 76.611 C 150.969 76.431,150.930 76.578,150.930 76.937 M50.671 76.894 C 50.553 76.969,50.860 77.031,51.354 77.031 C 51.848 77.031,52.155 76.969,52.036 76.894 C 51.918 76.818,51.611 76.756,51.354 76.756 C 51.097 76.756,50.790 76.818,50.671 76.894 M314.171 77.816 C 313.775 78.299,313.549 78.634,313.668 78.560 C 313.922 78.403,315.105 76.937,314.977 76.937 C 314.930 76.937,314.567 77.333,314.171 77.816 M52.490 77.181 C 52.533 77.212,52.820 77.385,53.128 77.565 L 53.688 77.893 53.247 77.509 C 53.005 77.297,52.718 77.124,52.609 77.124 C 52.501 77.124,52.447 77.150,52.490 77.181 M91.877 77.684 C 91.657 77.993,91.520 78.245,91.571 78.245 C 91.623 78.245,91.844 77.993,92.063 77.684 C 92.283 77.376,92.420 77.124,92.369 77.124 C 92.318 77.124,92.096 77.376,91.877 77.684 M135.948 77.183 C 135.948 77.215,136.221 77.488,136.555 77.790 L 137.162 78.338 136.613 77.731 C 136.102 77.165,135.948 77.038,135.948 77.183 M71.709 78.338 C 72.267 78.903,72.765 79.365,72.816 79.365 C 72.868 79.365,72.453 78.903,71.895 78.338 C 71.338 77.773,70.839 77.311,70.788 77.311 C 70.736 77.311,71.151 77.773,71.709 78.338 M95.425 77.598 C 95.264 77.796,95.244 77.883,95.378 77.803 C 95.562 77.692,95.612 78.581,95.612 82.005 L 95.612 86.347 95.102 86.918 L 94.593 87.488 95.199 86.921 L 95.805 86.354 95.755 81.803 C 95.710 77.725,95.676 77.289,95.425 77.598 M31.419 78.384 C 32.626 78.417,34.601 78.417,35.808 78.384 C 37.014 78.352,36.027 78.325,33.613 78.325 C 31.200 78.325,30.212 78.352,31.419 78.384 M84.827 78.384 C 86.034 78.417,88.009 78.417,89.216 78.384 C 90.423 78.352,89.435 78.325,87.021 78.325 C 84.608 78.325,83.620 78.352,84.827 78.384 M47.982 79.318 L 47.339 80.019 48.039 79.375 C 48.424 79.021,48.739 78.706,48.739 78.675 C 48.739 78.532,48.581 78.667,47.982 79.318 M151.304 80.859 C 151.304 81.218,151.342 81.366,151.389 81.186 C 151.436 81.006,151.436 80.712,151.389 80.532 C 151.342 80.352,151.304 80.500,151.304 80.859 M47.106 81.326 C 47.108 81.737,47.146 81.883,47.191 81.650 C 47.236 81.418,47.234 81.082,47.187 80.904 C 47.140 80.725,47.104 80.915,47.106 81.326 M82.627 85.387 L 82.633 89.356 88.181 89.405 C 93.650 89.454,93.731 89.449,93.938 89.062 C 94.053 88.847,94.107 88.629,94.056 88.579 C 94.006 88.528,93.910 88.662,93.842 88.875 C 93.721 89.255,93.621 89.262,88.226 89.262 L 82.734 89.262 82.678 85.341 L 82.622 81.419 82.627 85.387 M151.533 91.970 C 151.533 96.797,151.558 98.799,151.587 96.418 C 151.617 94.037,151.617 90.088,151.587 87.641 C 151.558 85.195,151.533 87.143,151.533 91.970 M235.699 83.856 C 235.808 84.170,235.932 84.392,235.975 84.349 C 236.067 84.257,235.715 83.287,235.589 83.287 C 235.540 83.287,235.590 83.543,235.699 83.856 M48.330 84.314 C 48.425 84.519,48.549 84.813,48.606 84.967 C 48.696 85.209,48.712 85.208,48.725 84.956 C 48.733 84.796,48.609 84.502,48.449 84.303 C 48.163 83.946,48.161 83.946,48.330 84.314 M138.419 84.594 C 138.419 84.953,138.457 85.100,138.504 84.921 C 138.551 84.741,138.551 84.447,138.504 84.267 C 138.457 84.087,138.419 84.234,138.419 84.594 M21.335 85.096 C 21.515 85.143,21.809 85.143,21.989 85.096 C 22.169 85.049,22.021 85.011,21.662 85.011 C 21.303 85.011,21.155 85.049,21.335 85.096 M138.643 90.850 C 138.643 93.315,138.669 94.297,138.702 93.033 C 138.734 91.769,138.734 89.752,138.701 88.551 C 138.669 87.350,138.643 88.385,138.643 90.850 M59.897 87.527 C 60.128 87.571,60.507 87.571,60.738 87.527 C 60.969 87.482,60.780 87.446,60.317 87.446 C 59.855 87.446,59.666 87.482,59.897 87.527 M58.158 88.375 L 57.610 88.982 58.217 88.434 C 58.782 87.923,58.909 87.768,58.765 87.768 C 58.733 87.768,58.460 88.042,58.158 88.375 M61.811 87.820 C 61.811 87.856,62.085 88.085,62.418 88.329 C 62.794 88.604,62.924 88.649,62.760 88.448 C 62.512 88.141,61.811 87.678,61.811 87.820 M21.335 88.084 C 21.515 88.131,21.809 88.131,21.989 88.084 C 22.169 88.037,22.021 87.999,21.662 87.999 C 21.303 87.999,21.155 88.037,21.335 88.084 M43.917 90.792 C 43.899 91.993,43.947 93.014,44.024 93.062 C 44.101 93.110,44.142 92.464,44.114 91.626 C 44.023 88.881,43.950 88.571,43.917 90.792 M26.752 89.076 C 26.818 89.317,27.620 89.356,32.508 89.360 L 38.189 89.364 32.596 89.311 C 28.422 89.270,26.961 89.198,26.839 89.026 C 26.720 88.858,26.696 88.871,26.752 89.076 M76.817 90.850 C 76.816 91.774,76.848 92.176,76.887 91.742 C 76.926 91.309,76.927 90.553,76.888 90.062 C 76.850 89.571,76.818 89.925,76.817 90.850 M301.669 92.670 L 301.120 93.277 301.727 92.729 C 302.061 92.427,302.334 92.154,302.334 92.122 C 302.334 91.978,302.180 92.105,301.669 92.670 M29.645 92.390 C 31.211 92.421,33.775 92.421,35.341 92.390 C 36.907 92.359,35.626 92.333,32.493 92.333 C 29.360 92.333,28.079 92.359,29.645 92.390 M82.623 92.489 C 82.573 92.620,82.554 94.448,82.582 96.550 L 82.633 100.373 87.488 100.378 L 92.344 100.383 87.535 100.328 L 82.726 100.274 82.726 96.355 L 82.726 92.437 88.223 92.437 C 93.622 92.437,93.721 92.444,93.842 92.825 C 93.910 93.038,94.006 93.171,94.056 93.121 C 94.107 93.070,94.054 92.854,93.939 92.640 C 93.681 92.158,82.806 92.012,82.623 92.489 M75.899 93.978 L 75.350 94.585 75.957 94.036 C 76.523 93.525,76.650 93.371,76.506 93.371 C 76.473 93.371,76.200 93.644,75.899 93.978 M21.244 93.689 C 21.476 93.734,21.812 93.732,21.991 93.686 C 22.170 93.639,21.979 93.602,21.569 93.605 C 21.158 93.607,21.012 93.645,21.244 93.689 M300.093 94.398 C 299.640 94.860,299.311 95.238,299.362 95.238 C 299.413 95.238,299.827 94.860,300.280 94.398 C 300.734 93.936,301.063 93.557,301.011 93.557 C 300.960 93.557,300.547 93.936,300.093 94.398 M94.474 94.086 C 94.575 94.275,94.804 94.548,94.983 94.693 C 95.185 94.857,95.140 94.727,94.865 94.351 C 94.375 93.681,94.191 93.557,94.474 94.086 M323.498 94.039 C 323.434 94.206,323.533 94.468,323.727 94.646 C 324.048 94.939,324.054 94.938,323.825 94.634 C 323.691 94.455,323.630 94.182,323.689 94.027 C 323.749 93.871,323.756 93.744,323.704 93.744 C 323.653 93.744,323.560 93.877,323.498 94.039 M17.141 94.211 C 17.248 94.416,17.615 94.836,17.958 95.144 L 18.581 95.704 17.928 94.958 C 17.568 94.547,17.201 94.127,17.111 94.024 C 17.021 93.922,17.035 94.006,17.141 94.211 M25.292 95.098 L 24.743 95.705 25.350 95.156 C 25.684 94.855,25.957 94.582,25.957 94.550 C 25.957 94.405,25.803 94.532,25.292 95.098 M46.125 94.856 C 46.279 94.960,46.566 95.047,46.763 95.048 C 47.241 95.052,47.092 94.945,46.405 94.792 C 45.996 94.700,45.921 94.718,46.125 94.856 M74.043 94.865 C 73.808 94.966,73.773 95.025,73.950 95.025 C 74.104 95.025,74.398 94.953,74.603 94.865 C 74.839 94.763,74.873 94.704,74.697 94.704 C 74.542 94.704,74.248 94.776,74.043 94.865 M324.837 95.985 C 325.342 96.499,325.798 96.919,325.850 96.919 C 325.901 96.919,325.529 96.499,325.023 95.985 C 324.518 95.472,324.062 95.051,324.010 95.051 C 323.959 95.051,324.331 95.472,324.837 95.985 M95.571 99.720 C 95.542 102.185,95.581 104.202,95.658 104.202 C 95.735 104.202,95.798 102.185,95.798 99.720 C 95.798 97.255,95.759 95.238,95.711 95.238 C 95.664 95.238,95.601 97.255,95.571 99.720 M298.126 96.592 L 297.199 97.572 298.179 96.646 C 298.718 96.136,299.160 95.695,299.160 95.665 C 299.160 95.526,298.987 95.681,298.126 96.592 M226.438 96.172 C 226.506 96.429,226.640 96.765,226.736 96.919 C 226.856 97.113,226.871 97.056,226.784 96.732 C 226.715 96.475,226.581 96.139,226.486 95.985 C 226.365 95.790,226.351 95.847,226.438 96.172 M138.419 96.919 C 138.419 97.278,138.457 97.425,138.504 97.246 C 138.551 97.066,138.551 96.772,138.504 96.592 C 138.457 96.412,138.419 96.559,138.419 96.919 M21.335 96.674 C 21.515 96.721,21.809 96.721,21.989 96.674 C 22.169 96.627,22.021 96.589,21.662 96.589 C 21.303 96.589,21.155 96.627,21.335 96.674 M174.127 96.781 C 174.078 96.911,174.061 99.327,174.090 102.150 L 174.143 107.283 174.186 102.009 L 174.230 96.734 189.963 96.685 L 205.696 96.637 189.957 96.591 C 177.410 96.555,174.200 96.593,174.127 96.781 M327.077 98.413 C 327.687 99.029,328.228 99.533,328.280 99.533 C 328.331 99.533,327.874 99.029,327.264 98.413 C 326.654 97.796,326.113 97.292,326.062 97.292 C 326.011 97.292,326.468 97.796,327.077 98.413 M241.301 99.169 C 241.410 99.483,241.534 99.704,241.577 99.662 C 241.669 99.569,241.317 98.599,241.191 98.599 C 241.142 98.599,241.192 98.856,241.301 99.169 M294.865 100.000 C 294.099 100.770,293.515 101.401,293.567 101.401 C 293.618 101.401,294.286 100.770,295.051 100.000 C 295.817 99.230,296.401 98.599,296.349 98.599 C 296.298 98.599,295.630 99.230,294.865 100.000 M259.975 99.337 C 259.866 99.650,259.816 99.907,259.865 99.907 C 259.991 99.907,260.343 98.937,260.251 98.844 C 260.209 98.802,260.085 99.024,259.975 99.337 M47.102 100.280 C 47.102 100.640,47.141 100.787,47.188 100.607 C 47.235 100.427,47.235 100.133,47.188 99.953 C 47.141 99.774,47.102 99.921,47.102 100.280 M245.742 100.399 C 245.639 100.670,245.589 100.927,245.631 100.969 C 245.674 101.011,245.798 100.790,245.907 100.476 C 246.150 99.780,246.003 99.711,245.742 100.399 M30.683 100.420 C 32.102 100.452,34.371 100.451,35.725 100.420 C 37.080 100.388,35.920 100.362,33.147 100.362 C 30.373 100.362,29.265 100.388,30.683 100.420 M93.181 100.935 C 93.925 101.831,93.987 101.888,93.784 101.492 C 93.679 101.285,93.395 100.950,93.155 100.746 C 92.732 100.389,92.733 100.396,93.181 100.935 M228.305 101.214 C 228.374 101.471,228.508 101.807,228.603 101.961 C 228.723 102.155,228.738 102.099,228.651 101.774 C 228.582 101.517,228.448 101.181,228.353 101.027 C 228.233 100.832,228.218 100.889,228.305 101.214 M72.467 102.389 C 71.682 103.310,71.676 103.327,72.342 102.708 C 72.933 102.159,73.538 101.379,73.349 101.409 C 73.320 101.414,72.923 101.855,72.467 102.389 M245.182 101.893 C 245.079 102.164,245.029 102.421,245.071 102.463 C 245.114 102.505,245.238 102.284,245.347 101.970 C 245.590 101.274,245.443 101.205,245.182 101.893 M48.926 103.361 C 49.484 103.926,49.983 104.388,50.034 104.388 C 50.085 104.388,49.671 103.926,49.113 103.361 C 48.555 102.796,48.057 102.334,48.005 102.334 C 47.954 102.334,48.368 102.796,48.926 103.361 M28.921 103.595 C 28.695 103.883,28.699 103.895,28.960 103.692 C 29.170 103.528,30.540 103.446,33.722 103.408 L 38.189 103.354 33.683 103.311 C 29.583 103.272,29.154 103.297,28.921 103.595 M64.835 103.595 C 64.626 103.775,64.410 104.216,64.355 104.575 L 64.254 105.229 64.489 104.508 C 64.622 104.102,64.924 103.678,65.182 103.535 C 65.434 103.395,65.544 103.278,65.427 103.275 C 65.310 103.271,65.043 103.415,64.835 103.595 M82.623 103.506 C 82.573 103.638,82.556 105.465,82.586 107.568 L 82.641 111.391 82.684 107.426 L 82.726 103.462 86.975 103.408 L 91.223 103.354 86.969 103.311 C 83.658 103.278,82.694 103.321,82.623 103.506 M136.334 104.065 C 135.802 104.720,135.781 104.776,136.211 104.388 C 136.657 103.986,137.188 103.261,137.028 103.271 C 136.999 103.273,136.686 103.630,136.334 104.065 M333.053 104.388 C 333.559 104.902,334.015 105.322,334.066 105.322 C 334.118 105.322,333.746 104.902,333.240 104.388 C 332.734 103.875,332.278 103.455,332.227 103.455 C 332.176 103.455,332.547 103.875,333.053 104.388 M288.419 106.676 L 285.994 109.150 288.469 106.725 C 290.767 104.473,291.028 104.202,290.894 104.202 C 290.867 104.202,289.753 105.315,288.419 106.676 M243.952 105.041 C 243.893 105.194,243.757 105.265,243.649 105.199 C 243.535 105.128,243.508 105.167,243.586 105.293 C 243.788 105.619,244.016 105.552,244.125 105.135 C 244.239 104.701,244.110 104.631,243.952 105.041 M150.934 105.789 C 150.936 106.200,150.974 106.346,151.019 106.114 C 151.064 105.881,151.062 105.545,151.015 105.367 C 150.969 105.188,150.932 105.378,150.934 105.789 M316.153 106.349 C 316.502 106.709,316.829 107.003,316.880 107.003 C 316.931 107.003,316.688 106.709,316.340 106.349 C 315.991 105.990,315.664 105.696,315.613 105.696 C 315.562 105.696,315.805 105.990,316.153 106.349 M230.167 106.303 C 230.237 106.534,230.371 106.805,230.465 106.905 C 230.559 107.006,230.541 106.816,230.426 106.485 C 230.189 105.807,229.971 105.652,230.167 106.303 M334.827 105.941 C 334.827 105.973,335.100 106.246,335.434 106.548 L 336.041 107.096 335.493 106.489 C 334.981 105.924,334.827 105.797,334.827 105.941 M310.548 109.384 L 307.843 112.138 310.598 109.433 C 312.113 107.945,313.352 106.705,313.352 106.678 C 313.352 106.545,313.062 106.825,310.548 109.384 M317.087 107.061 C 317.087 107.093,317.360 107.366,317.694 107.668 L 318.301 108.217 317.752 107.610 C 317.241 107.044,317.087 106.917,317.087 107.061 M207.750 113.912 C 207.750 117.590,207.813 120.560,207.890 120.513 C 207.967 120.465,208.030 117.495,208.030 113.912 C 208.030 110.330,207.967 107.359,207.890 107.312 C 207.813 107.264,207.750 110.234,207.750 113.912 M16.304 108.230 L 15.780 108.711 16.387 108.288 C 16.720 108.056,16.993 107.840,16.993 107.808 C 16.993 107.661,16.787 107.787,16.304 108.230 M150.348 109.462 C 150.337 109.633,150.278 109.927,150.219 110.115 C 150.117 110.440,150.123 110.440,150.325 110.125 C 150.443 109.942,150.501 109.648,150.454 109.471 C 150.378 109.182,150.368 109.181,150.348 109.462 M282.816 112.465 L 280.952 114.379 282.866 112.515 C 284.644 110.784,284.865 110.551,284.730 110.551 C 284.703 110.551,283.841 111.412,282.816 112.465 M41.334 111.342 C 41.453 111.417,50.037 111.460,60.411 111.438 C 70.784 111.416,76.877 111.375,73.950 111.348 C 60.331 111.222,41.140 111.218,41.334 111.342 M26.264 112.232 C 26.412 113.037,26.518 113.189,26.514 112.589 C 26.513 112.341,26.429 112.012,26.328 111.858 C 26.199 111.661,26.180 111.772,26.264 112.232 M81.525 113.119 C 81.121 113.634,81.089 113.721,81.402 113.447 C 81.777 113.120,82.270 112.418,82.126 112.418 C 82.097 112.418,81.826 112.733,81.525 113.119 M13.309 113.912 C 13.309 114.374,13.346 114.563,13.390 114.332 C 13.435 114.101,13.435 113.723,13.390 113.492 C 13.346 113.261,13.309 113.450,13.309 113.912 M305.872 113.866 L 305.229 114.566 305.929 113.922 C 306.314 113.568,306.629 113.253,306.629 113.222 C 306.629 113.079,306.471 113.214,305.872 113.866 M26.564 114.006 C 26.566 114.416,26.605 114.563,26.649 114.330 C 26.694 114.098,26.692 113.762,26.646 113.583 C 26.599 113.405,26.562 113.595,26.564 114.006 M43.184 114.425 C 44.185 114.459,45.824 114.459,46.825 114.425 C 47.827 114.391,47.007 114.364,45.005 114.364 C 43.002 114.364,42.183 114.391,43.184 114.425 M51.253 114.518 C 51.202 114.650,51.185 117.068,51.214 119.891 L 51.267 125.023 51.310 119.748 L 51.354 114.472 55.089 114.472 L 58.824 114.472 58.824 120.249 C 58.824 125.931,58.817 126.027,58.436 126.148 C 58.223 126.216,58.090 126.312,58.140 126.363 C 58.190 126.413,58.408 126.360,58.623 126.244 C 59.011 126.037,59.015 125.960,58.966 120.207 L 58.917 114.379 55.131 114.329 C 52.183 114.289,51.325 114.331,51.253 114.518 M63.539 114.425 C 64.643 114.458,66.450 114.458,67.554 114.425 C 68.658 114.392,67.754 114.365,65.546 114.365 C 63.338 114.365,62.435 114.392,63.539 114.425 M73.996 114.425 C 74.998 114.459,76.636 114.459,77.638 114.425 C 78.639 114.391,77.820 114.364,75.817 114.364 C 73.814 114.364,72.995 114.391,73.996 114.425 M48.409 119.150 C 48.378 122.480,48.303 123.809,48.134 124.006 C 47.979 124.186,48.011 124.180,48.231 123.986 C 48.531 123.721,48.555 123.295,48.506 119.131 L 48.452 114.566 48.409 119.150 M69.363 119.608 C 69.363 122.381,69.389 123.541,69.421 122.187 C 69.452 120.832,69.452 118.563,69.421 117.145 C 69.389 115.726,69.363 116.835,69.363 119.608 M61.707 120.261 C 61.707 123.291,61.733 124.531,61.764 123.016 C 61.796 121.501,61.796 119.022,61.764 117.507 C 61.733 115.992,61.707 117.232,61.707 120.261 M26.352 115.251 C 26.340 115.422,26.282 115.716,26.223 115.904 C 26.121 116.229,26.127 116.229,26.329 115.914 C 26.446 115.731,26.504 115.437,26.458 115.260 C 26.382 114.971,26.372 114.970,26.352 115.251 M279.079 116.387 L 277.965 117.554 279.132 116.439 C 279.774 115.826,280.299 115.301,280.299 115.272 C 280.299 115.134,280.114 115.302,279.079 116.387 M303.539 116.013 L 302.801 116.807 303.595 116.069 C 304.333 115.382,304.474 115.219,304.333 115.219 C 304.302 115.219,303.945 115.577,303.539 116.013 M146.860 116.200 L 146.312 116.807 146.919 116.258 C 147.484 115.747,147.612 115.593,147.467 115.593 C 147.435 115.593,147.162 115.866,146.860 116.200 M17.274 116.683 C 17.582 117.025,18.002 117.393,18.207 117.499 C 18.413 117.606,18.497 117.619,18.394 117.529 C 18.291 117.439,17.871 117.072,17.461 116.713 L 16.714 116.060 17.274 116.683 M145.461 117.600 L 144.818 118.301 145.518 117.657 C 146.170 117.058,146.304 116.900,146.162 116.900 C 146.131 116.900,145.815 117.215,145.461 117.600 M301.764 117.600 L 301.120 118.301 301.821 117.657 C 302.473 117.058,302.607 116.900,302.464 116.900 C 302.433 116.900,302.118 117.215,301.764 117.600 M234.467 117.834 C 234.536 118.091,234.670 118.427,234.765 118.581 C 234.886 118.775,234.900 118.718,234.814 118.394 C 234.745 118.137,234.611 117.801,234.516 117.647 C 234.395 117.452,234.381 117.509,234.467 117.834 M24.661 118.636 C 23.876 119.556,23.870 119.573,24.537 118.954 C 25.127 118.406,25.732 117.626,25.543 117.655 C 25.514 117.660,25.117 118.101,24.661 118.636 M95.581 119.196 C 95.615 119.833,95.699 120.414,95.767 120.486 C 95.836 120.559,95.864 120.096,95.829 119.459 C 95.795 118.822,95.711 118.242,95.643 118.169 C 95.574 118.097,95.546 118.559,95.581 119.196 M300.175 119.001 L 299.627 119.608 300.233 119.059 C 300.799 118.548,300.926 118.394,300.782 118.394 C 300.750 118.394,300.477 118.667,300.175 119.001 M276.275 119.374 L 275.537 120.168 276.331 119.430 C 277.069 118.743,277.210 118.581,277.069 118.581 C 277.038 118.581,276.681 118.938,276.275 119.374 M22.222 120.355 C 21.965 120.502,21.839 120.622,21.942 120.622 C 22.045 120.622,22.339 120.502,22.596 120.355 C 22.852 120.208,22.979 120.088,22.876 120.088 C 22.773 120.088,22.479 120.208,22.222 120.355 M275.257 120.661 C 275.257 120.749,275.467 120.822,275.724 120.822 C 275.980 120.822,276.190 120.789,276.190 120.750 C 276.190 120.711,275.980 120.638,275.724 120.589 C 275.467 120.540,275.257 120.572,275.257 120.661 M360.598 123.529 C 360.854 123.676,361.148 123.796,361.251 123.796 C 361.354 123.796,361.228 123.676,360.971 123.529 C 360.714 123.383,360.420 123.263,360.317 123.263 C 360.215 123.263,360.341 123.383,360.598 123.529 M50.502 125.724 L 49.953 126.331 50.560 125.782 C 51.126 125.271,51.253 125.117,51.109 125.117 C 51.077 125.117,50.803 125.390,50.502 125.724 M349.206 125.832 C 349.360 125.927,349.697 126.061,349.953 126.130 C 350.278 126.217,350.335 126.202,350.140 126.082 C 349.986 125.987,349.650 125.853,349.393 125.784 C 349.069 125.697,349.012 125.712,349.206 125.832 M71.335 126.673 C 71.335 126.724,71.671 127.032,72.082 127.358 C 72.493 127.683,72.829 127.907,72.829 127.856 C 72.829 127.804,72.493 127.496,72.082 127.171 C 71.671 126.845,71.335 126.621,71.335 126.673 M63.492 127.043 C 63.492 127.075,63.765 127.348,64.099 127.649 L 64.706 128.198 64.157 127.591 C 63.646 127.025,63.492 126.898,63.492 127.043 M86.826 128.571 C 87.277 129.085,87.684 129.547,87.732 129.599 C 87.780 129.650,87.731 129.524,87.622 129.318 C 87.514 129.113,87.107 128.651,86.717 128.291 C 86.043 127.670,86.048 127.684,86.826 128.571 M368.861 129.727 C 369.041 129.774,369.335 129.774,369.514 129.727 C 369.694 129.680,369.547 129.642,369.188 129.642 C 368.828 129.642,368.681 129.680,368.861 129.727 M373.203 130.345 C 373.511 130.424,373.973 130.488,374.230 130.488 C 374.646 130.488,374.636 130.473,374.136 130.345 C 373.828 130.267,373.366 130.203,373.109 130.203 C 372.693 130.203,372.703 130.218,373.203 130.345 M378.478 131.037 C 378.709 131.082,379.087 131.082,379.318 131.037 C 379.549 130.993,379.360 130.957,378.898 130.957 C 378.436 130.957,378.247 130.993,378.478 131.037 M385.154 131.103 C 385.565 131.188,386.111 131.253,386.368 131.246 C 387.109 131.228,385.884 130.950,385.061 130.949 L 384.407 130.949 385.154 131.103 M65.776 131.653 C 65.776 132.012,65.815 132.159,65.862 131.979 C 65.909 131.800,65.909 131.506,65.862 131.326 C 65.815 131.146,65.776 131.293,65.776 131.653 M380.439 131.221 C 380.619 131.268,380.913 131.268,381.092 131.221 C 381.272 131.174,381.125 131.136,380.766 131.136 C 380.406 131.136,380.259 131.174,380.439 131.221 M383.522 131.411 C 383.755 131.456,384.091 131.454,384.269 131.407 C 384.448 131.361,384.258 131.324,383.847 131.326 C 383.436 131.328,383.290 131.367,383.522 131.411 M388.655 131.413 C 388.938 131.456,389.400 131.456,389.683 131.413 C 389.965 131.370,389.734 131.335,389.169 131.335 C 388.604 131.335,388.373 131.370,388.655 131.413 M88.650 132.866 C 88.755 134.808,88.859 135.082,88.861 133.427 C 88.862 132.708,88.796 131.951,88.715 131.746 C 88.634 131.539,88.604 132.039,88.650 132.866 M385.854 131.602 C 386.239 131.642,386.870 131.642,387.255 131.602 C 387.640 131.562,387.325 131.529,386.555 131.529 C 385.784 131.529,385.469 131.562,385.854 131.602 M42.077 133.333 C 42.077 134.001,42.110 134.274,42.152 133.940 C 42.193 133.606,42.193 133.060,42.152 132.726 C 42.110 132.393,42.077 132.666,42.077 133.333 M75.658 133.333 C 75.657 134.001,75.724 134.715,75.806 134.921 C 75.890 135.132,75.918 134.688,75.871 133.894 C 75.762 132.069,75.660 131.802,75.658 133.333 M78.485 133.427 C 78.486 133.940,78.522 134.128,78.565 133.844 C 78.608 133.560,78.607 133.140,78.563 132.911 C 78.519 132.681,78.483 132.913,78.485 133.427 M31.965 134.734 C 31.961 134.939,32.031 135.275,32.120 135.481 C 32.324 135.957,32.324 135.466,32.120 134.827 C 31.999 134.452,31.969 134.434,31.965 134.734 M84.675 136.368 L 84.127 136.975 84.734 136.426 C 85.300 135.915,85.427 135.761,85.282 135.761 C 85.250 135.761,84.977 136.034,84.675 136.368 M63.212 136.438 C 62.876 136.724,62.808 136.837,63.041 136.721 C 63.383 136.551,64.025 135.937,63.842 135.954 C 63.803 135.958,63.520 136.176,63.212 136.438 M61.625 137.162 C 61.265 137.300,61.097 137.416,61.251 137.419 C 61.405 137.422,61.783 137.309,62.092 137.168 C 62.813 136.838,62.477 136.833,61.625 137.162 M38.049 137.387 C 38.280 137.431,38.658 137.431,38.889 137.387 C 39.120 137.342,38.931 137.306,38.469 137.306 C 38.007 137.306,37.817 137.342,38.049 137.387 M81.935 137.387 C 82.167 137.432,82.503 137.430,82.682 137.383 C 82.860 137.336,82.670 137.300,82.260 137.302 C 81.849 137.304,81.703 137.342,81.935 137.387 M33.894 138.375 C 34.295 138.786,34.665 139.122,34.716 139.122 C 34.768 139.122,34.481 138.786,34.080 138.375 C 33.679 137.965,33.309 137.628,33.258 137.628 C 33.206 137.628,33.492 137.965,33.894 138.375 M38.049 140.375 C 38.280 140.419,38.658 140.419,38.889 140.375 C 39.120 140.330,38.931 140.294,38.469 140.294 C 38.007 140.294,37.817 140.330,38.049 140.375 M81.935 140.375 C 82.167 140.420,82.503 140.418,82.682 140.371 C 82.860 140.324,82.670 140.288,82.260 140.290 C 81.849 140.292,81.703 140.330,81.935 140.375 " stroke="none" fill="#c2a4be" fill-rule="evenodd"></path><path id="path3" d="M87.675 43.324 C 88.076 43.735,88.446 44.071,88.498 44.071 C 88.549 44.071,88.263 43.735,87.862 43.324 C 87.461 42.913,87.090 42.577,87.039 42.577 C 86.988 42.577,87.274 42.913,87.675 43.324 M78.886 43.371 L 78.338 43.978 78.945 43.429 C 79.511 42.918,79.638 42.764,79.493 42.764 C 79.461 42.764,79.188 43.037,78.886 43.371 M39.262 44.200 C 39.442 44.247,39.736 44.247,39.916 44.200 C 40.096 44.153,39.949 44.114,39.589 44.114 C 39.230 44.114,39.083 44.153,39.262 44.200 M83.147 44.200 C 83.326 44.247,83.620 44.247,83.800 44.200 C 83.980 44.153,83.833 44.114,83.473 44.114 C 83.114 44.114,82.967 44.153,83.147 44.200 M57.598 45.985 L 57.049 46.592 57.656 46.043 C 58.222 45.532,58.349 45.378,58.205 45.378 C 58.173 45.378,57.900 45.651,57.598 45.985 M76.999 48.273 C 77.000 48.992,77.033 49.263,77.074 48.875 C 77.114 48.488,77.113 47.900,77.072 47.568 C 77.031 47.237,76.998 47.554,76.999 48.273 M33.111 48.273 C 33.112 48.889,33.147 49.118,33.189 48.783 C 33.230 48.447,33.229 47.943,33.187 47.662 C 33.144 47.382,33.110 47.656,33.111 48.273 M79.408 48.179 C 79.408 48.539,79.447 48.686,79.494 48.506 C 79.541 48.326,79.541 48.032,79.494 47.852 C 79.447 47.673,79.408 47.820,79.408 48.179 M42.098 51.214 L 41.550 51.821 42.157 51.272 C 42.491 50.971,42.764 50.697,42.764 50.665 C 42.764 50.521,42.610 50.648,42.098 51.214 M59.798 52.334 C 60.087 52.617,60.427 52.845,60.554 52.842 C 60.681 52.839,60.616 52.743,60.411 52.630 C 60.205 52.516,59.865 52.288,59.655 52.122 C 59.445 51.956,59.509 52.052,59.798 52.334 M57.703 54.062 C 58.052 54.421,58.379 54.715,58.430 54.715 C 58.481 54.715,58.238 54.421,57.890 54.062 C 57.541 53.702,57.214 53.408,57.163 53.408 C 57.112 53.408,57.355 53.702,57.703 54.062 M39.169 55.034 C 39.400 55.078,39.778 55.078,40.009 55.034 C 40.240 54.989,40.051 54.953,39.589 54.953 C 39.127 54.953,38.938 54.989,39.169 55.034 M82.962 55.036 C 83.246 55.079,83.666 55.078,83.896 55.033 C 84.126 54.989,83.894 54.954,83.380 54.955 C 82.866 54.957,82.679 54.993,82.962 55.036 M62.598 61.380 C 62.576 64.584,62.621 67.244,62.698 67.292 C 62.775 67.339,62.817 65.643,62.791 63.521 C 62.701 56.257,62.638 55.558,62.598 61.380 M70.588 62.036 C 70.537 64.984,70.559 67.331,70.638 67.252 C 70.717 67.173,70.759 64.761,70.731 61.892 L 70.681 56.676 70.588 62.036 M95.852 62.278 C 95.853 62.792,95.889 62.980,95.932 62.696 C 95.975 62.412,95.974 61.992,95.930 61.762 C 95.885 61.532,95.850 61.765,95.852 62.278 M207.741 68.161 C 207.741 71.909,207.766 73.443,207.796 71.569 C 207.827 69.694,207.827 66.627,207.796 64.753 C 207.766 62.878,207.741 64.412,207.741 68.161 M285.584 61.577 C 286.694 61.610,288.459 61.610,289.506 61.577 C 290.553 61.544,289.645 61.517,287.488 61.517 C 285.331 61.517,284.475 61.544,285.584 61.577 M328.814 61.950 C 329.666 61.985,331.010 61.985,331.802 61.950 C 332.593 61.915,331.895 61.887,330.252 61.887 C 328.609 61.887,327.962 61.916,328.814 61.950 M296.732 62.057 C 296.732 62.089,297.005 62.362,297.339 62.663 L 297.946 63.212 297.397 62.605 C 296.886 62.039,296.732 61.912,296.732 62.057 M343.948 62.137 C 345.563 62.195,345.673 62.223,345.442 62.519 C 345.216 62.807,345.224 62.813,345.518 62.582 C 346.131 62.102,345.846 61.998,344.024 62.037 L 342.204 62.076 343.948 62.137 M326.319 62.979 L 325.770 63.585 326.377 63.037 C 326.943 62.526,327.070 62.372,326.926 62.372 C 326.894 62.372,326.620 62.645,326.319 62.979 M19.655 63.621 C 19.834 63.668,20.128 63.668,20.308 63.621 C 20.488 63.574,20.341 63.535,19.981 63.535 C 19.622 63.535,19.475 63.574,19.655 63.621 M279.178 63.924 C 279.178 63.956,279.451 64.229,279.785 64.531 L 280.392 65.079 279.844 64.472 C 279.332 63.907,279.178 63.780,279.178 63.924 M146.032 65.044 C 146.032 65.077,146.305 65.350,146.639 65.651 L 147.246 66.200 146.697 65.593 C 146.186 65.027,146.032 64.900,146.032 65.044 M26.384 67.694 C 26.385 68.207,26.422 68.395,26.465 68.111 C 26.507 67.827,26.506 67.407,26.462 67.178 C 26.418 66.948,26.383 67.180,26.384 67.694 M13.492 67.694 C 13.495 68.105,13.533 68.251,13.577 68.018 C 13.622 67.786,13.620 67.450,13.574 67.271 C 13.527 67.093,13.490 67.283,13.492 67.694 M16.107 67.694 C 16.109 68.105,16.147 68.251,16.192 68.018 C 16.236 67.786,16.235 67.450,16.188 67.271 C 16.141 67.093,16.105 67.283,16.107 67.694 M48.179 70.165 C 66.080 70.294,79.508 70.295,79.430 70.168 C 79.382 70.091,70.798 70.048,60.353 70.072 C 49.909 70.097,44.430 70.139,48.179 70.165 M38.174 74.416 C 38.174 76.573,38.202 77.430,38.235 76.320 C 38.268 75.211,38.268 73.446,38.234 72.399 C 38.201 71.352,38.174 72.260,38.174 74.416 M80.015 90.850 C 80.015 101.839,80.038 106.308,80.065 100.779 C 80.093 95.251,80.093 86.259,80.065 80.798 C 80.038 75.337,80.015 79.860,80.015 90.850 M19.655 71.837 C 19.834 71.884,20.128 71.884,20.308 71.837 C 20.488 71.790,20.341 71.752,19.981 71.752 C 19.622 71.752,19.475 71.790,19.655 71.837 M15.593 72.642 C 15.994 73.053,16.364 73.389,16.416 73.389 C 16.467 73.389,16.181 73.053,15.780 72.642 C 15.378 72.232,15.008 71.895,14.957 71.895 C 14.906 71.895,15.192 72.232,15.593 72.642 M19.374 74.458 C 19.708 74.500,20.254 74.500,20.588 74.458 C 20.922 74.417,20.649 74.383,19.981 74.383 C 19.314 74.383,19.041 74.417,19.374 74.458 M114.439 75.770 C 117.759 75.799,123.137 75.799,126.391 75.770 C 129.644 75.742,126.928 75.718,120.355 75.718 C 113.782 75.718,111.120 75.742,114.439 75.770 M51.027 77.066 C 51.207 77.113,51.501 77.113,51.681 77.066 C 51.860 77.019,51.713 76.981,51.354 76.981 C 50.994 76.981,50.847 77.019,51.027 77.066 M95.763 77.077 C 95.731 77.155,95.749 79.276,95.803 81.793 L 95.902 86.368 95.943 81.653 C 95.981 77.405,95.950 76.623,95.763 77.077 M71.429 78.245 C 71.934 78.758,72.390 79.178,72.442 79.178 C 72.493 79.178,72.121 78.758,71.615 78.245 C 71.109 77.731,70.654 77.311,70.602 77.311 C 70.551 77.311,70.923 77.731,71.429 78.245 M151.132 80.205 C 151.133 80.822,151.168 81.051,151.209 80.716 C 151.251 80.380,151.250 79.876,151.207 79.595 C 151.165 79.315,151.131 79.589,151.132 80.205 M234.462 80.906 C 234.532 81.137,234.666 81.408,234.760 81.508 C 234.854 81.609,234.836 81.420,234.721 81.088 C 234.484 80.410,234.266 80.256,234.462 80.906 M38.055 85.262 L 38.109 89.460 32.416 89.408 C 29.284 89.379,26.787 89.420,26.865 89.499 C 26.944 89.577,29.524 89.619,32.599 89.592 L 38.189 89.542 38.239 85.447 C 38.267 83.195,38.225 81.287,38.146 81.208 C 38.067 81.129,38.026 82.953,38.055 85.262 M138.616 84.874 C 138.617 85.387,138.653 85.575,138.696 85.292 C 138.739 85.008,138.738 84.588,138.694 84.358 C 138.649 84.128,138.614 84.360,138.616 84.874 M181.839 84.921 C 186.179 84.949,193.280 84.949,197.619 84.921 C 201.958 84.893,198.408 84.870,189.729 84.870 C 181.050 84.870,177.500 84.893,181.839 84.921 M21.242 85.286 C 21.473 85.330,21.851 85.330,22.082 85.286 C 22.313 85.241,22.124 85.205,21.662 85.205 C 21.200 85.205,21.011 85.241,21.242 85.286 M17.822 86.881 L 17.274 87.488 17.880 86.940 C 18.214 86.638,18.487 86.365,18.487 86.333 C 18.487 86.189,18.333 86.316,17.822 86.881 M59.991 87.337 C 60.170 87.384,60.465 87.384,60.644 87.337 C 60.824 87.290,60.677 87.252,60.317 87.252 C 59.958 87.252,59.811 87.290,59.991 87.337 M57.971 88.375 L 57.423 88.982 58.030 88.434 C 58.596 87.923,58.723 87.768,58.578 87.768 C 58.546 87.768,58.273 88.042,57.971 88.375 M138.823 90.850 C 138.823 92.288,138.852 92.851,138.888 92.102 C 138.923 91.353,138.923 90.176,138.887 89.488 C 138.851 88.799,138.822 89.412,138.823 90.850 M76.632 90.850 C 76.633 91.877,76.664 92.273,76.702 91.730 C 76.740 91.188,76.739 90.347,76.701 89.863 C 76.663 89.379,76.632 89.823,76.632 90.850 M82.516 89.309 C 82.751 89.609,83.227 89.632,88.305 89.592 L 93.838 89.548 88.344 89.496 C 84.339 89.458,82.771 89.381,82.555 89.213 C 82.294 89.009,82.289 89.020,82.516 89.309 M57.007 90.756 C 57.007 91.218,57.043 91.408,57.088 91.176 C 57.132 90.945,57.132 90.567,57.088 90.336 C 57.043 90.105,57.007 90.294,57.007 90.756 M302.007 91.425 C 302.439 91.937,302.425 92.036,301.821 92.707 L 301.307 93.277 301.914 92.729 C 302.632 92.080,302.662 91.867,302.101 91.392 C 301.681 91.037,301.681 91.037,302.007 91.425 M38.138 96.402 L 38.095 100.461 33.007 100.514 L 27.918 100.566 33.012 100.610 C 37.003 100.644,38.127 100.602,38.198 100.415 C 38.249 100.284,38.265 98.415,38.235 96.260 L 38.181 92.344 38.138 96.402 M300.175 94.538 L 299.627 95.145 300.233 94.596 C 300.567 94.295,300.840 94.021,300.840 93.989 C 300.840 93.845,300.686 93.972,300.175 94.538 M95.842 99.871 C 95.808 103.439,95.748 104.382,95.565 104.279 C 95.380 104.174,95.379 104.198,95.562 104.395 C 95.967 104.832,95.993 104.526,95.938 99.888 L 95.885 95.331 95.842 99.871 M138.616 96.639 C 138.617 97.152,138.653 97.340,138.696 97.056 C 138.739 96.772,138.738 96.352,138.694 96.123 C 138.649 95.893,138.614 96.125,138.616 96.639 M324.743 96.043 C 324.743 96.076,325.016 96.349,325.350 96.650 L 325.957 97.199 325.409 96.592 C 324.897 96.026,324.743 95.899,324.743 96.043 M297.564 97.339 L 296.825 98.133 297.619 97.394 C 298.357 96.708,298.499 96.545,298.357 96.545 C 298.327 96.545,297.970 96.902,297.564 97.339 M327.638 99.160 C 328.351 99.879,328.977 100.467,329.028 100.467 C 329.080 100.467,328.538 99.879,327.824 99.160 C 327.111 98.441,326.485 97.852,326.434 97.852 C 326.383 97.852,326.924 98.441,327.638 99.160 M294.579 100.514 L 293.277 101.867 294.631 100.565 C 295.889 99.356,296.070 99.160,295.933 99.160 C 295.905 99.160,295.296 99.769,294.579 100.514 M82.359 100.024 C 82.343 100.601,82.887 100.660,87.791 100.607 L 92.717 100.554 87.731 100.510 C 83.207 100.471,82.727 100.437,82.555 100.140 C 82.450 99.960,82.362 99.908,82.359 100.024 M48.732 102.941 C 49.506 103.766,49.673 103.914,49.673 103.774 C 49.673 103.744,49.274 103.345,48.786 102.887 L 47.899 102.054 48.732 102.941 M151.127 102.988 C 151.129 103.501,151.165 103.689,151.208 103.405 C 151.251 103.122,151.250 102.701,151.205 102.472 C 151.161 102.242,151.126 102.474,151.127 102.988 M332.400 103.922 C 333.061 104.589,333.645 105.135,333.696 105.135 C 333.747 105.135,333.248 104.589,332.586 103.922 C 331.925 103.254,331.341 102.708,331.290 102.708 C 331.239 102.708,331.738 103.254,332.400 103.922 M38.174 107.096 C 38.174 109.253,38.202 110.110,38.235 109.000 C 38.268 107.890,38.268 106.126,38.234 105.079 C 38.201 104.031,38.174 104.939,38.174 107.096 M136.216 104.435 L 135.668 105.042 136.275 104.494 C 136.608 104.192,136.881 103.919,136.881 103.887 C 136.881 103.742,136.727 103.869,136.216 104.435 M288.606 106.676 L 286.555 108.777 288.655 106.726 C 290.607 104.821,290.841 104.575,290.706 104.575 C 290.679 104.575,289.734 105.521,288.606 106.676 M334.454 105.754 C 334.454 105.786,334.727 106.059,335.061 106.361 L 335.668 106.909 335.119 106.303 C 334.608 105.737,334.454 105.610,334.454 105.754 M312.876 106.863 L 312.138 107.656 312.932 106.918 C 313.670 106.232,313.811 106.069,313.670 106.069 C 313.640 106.069,313.282 106.426,312.876 106.863 M190.803 107.329 L 207.656 107.378 207.656 113.912 L 207.656 120.447 184.687 120.495 L 161.718 120.544 184.734 120.543 L 207.750 120.542 207.750 113.912 L 207.750 107.283 190.850 107.281 L 173.950 107.280 190.803 107.329 M59.430 108.074 C 59.918 108.112,60.717 108.112,61.204 108.074 C 61.692 108.035,61.293 108.004,60.317 108.004 C 59.342 108.004,58.943 108.035,59.430 108.074 M22.035 110.423 C 22.035 110.455,22.309 110.728,22.642 111.029 L 23.249 111.578 22.701 110.971 C 22.190 110.405,22.035 110.278,22.035 110.423 M307.836 111.905 L 306.909 112.885 307.890 111.958 C 308.429 111.449,308.870 111.008,308.870 110.978 C 308.870 110.839,308.697 110.994,307.836 111.905 M281.692 113.772 L 280.766 114.753 281.746 113.826 C 282.285 113.316,282.726 112.875,282.726 112.845 C 282.726 112.706,282.553 112.861,281.692 113.772 M13.496 113.912 C 13.496 114.374,13.533 114.563,13.577 114.332 C 13.622 114.101,13.622 113.723,13.577 113.492 C 13.533 113.261,13.496 113.450,13.496 113.912 M26.384 114.006 C 26.385 114.519,26.422 114.707,26.465 114.423 C 26.507 114.139,26.506 113.719,26.462 113.489 C 26.418 113.260,26.383 113.492,26.384 114.006 M16.103 113.912 C 16.103 114.272,16.142 114.419,16.188 114.239 C 16.235 114.059,16.235 113.765,16.188 113.585 C 16.142 113.406,16.103 113.553,16.103 113.912 M305.499 114.052 L 304.855 114.753 305.556 114.109 C 306.207 113.510,306.342 113.352,306.199 113.352 C 306.168 113.352,305.853 113.667,305.499 114.052 M43.101 114.238 C 44.159 114.272,45.839 114.272,46.835 114.238 C 47.831 114.205,46.965 114.177,44.911 114.177 C 42.857 114.178,42.042 114.205,43.101 114.238 M53.091 114.238 C 54.201 114.271,55.966 114.271,57.013 114.238 C 58.060 114.205,57.152 114.178,54.995 114.178 C 52.838 114.178,51.982 114.205,53.091 114.238 M65.543 114.237 L 69.462 114.293 69.516 119.471 L 69.570 124.650 69.566 119.421 L 69.561 114.192 65.593 114.187 L 61.624 114.181 65.543 114.237 M72.204 114.239 C 72.156 114.316,73.223 114.357,74.574 114.331 C 79.176 114.240,79.651 114.173,75.968 114.136 C 73.946 114.116,72.252 114.162,72.204 114.239 M233.831 115.789 C 233.941 116.103,234.065 116.324,234.107 116.282 C 234.200 116.189,233.847 115.219,233.721 115.219 C 233.673 115.219,233.722 115.476,233.831 115.789 M303.350 116.013 L 302.801 116.620 303.408 116.072 C 303.974 115.560,304.101 115.406,303.957 115.406 C 303.924 115.406,303.651 115.679,303.350 116.013 M278.704 116.947 L 277.778 117.927 278.758 117.000 C 279.297 116.491,279.739 116.050,279.739 116.020 C 279.739 115.881,279.566 116.036,278.704 116.947 M301.482 117.694 L 300.934 118.301 301.541 117.752 C 302.106 117.241,302.233 117.087,302.089 117.087 C 302.057 117.087,301.784 117.360,301.482 117.694 M299.897 119.094 L 299.253 119.795 299.953 119.151 C 300.605 118.552,300.739 118.394,300.597 118.394 C 300.566 118.394,300.251 118.709,299.897 119.094 M95.874 119.514 L 95.892 120.542 97.713 120.552 L 99.534 120.563 97.769 120.499 L 96.004 120.435 95.930 119.461 L 95.856 118.487 95.874 119.514 M276.229 119.568 C 275.416 120.397,275.289 120.635,275.661 120.635 C 275.781 120.635,275.821 120.577,275.751 120.506 C 275.680 120.435,275.977 120.015,276.412 119.573 C 276.846 119.130,277.160 118.768,277.109 118.768 C 277.057 118.768,276.662 119.128,276.229 119.568 M110.784 120.588 C 115.791 120.616,123.985 120.616,128.992 120.588 C 133.999 120.561,129.902 120.538,119.888 120.538 C 109.874 120.538,105.777 120.561,110.784 120.588 M239.729 120.588 C 241.912 120.618,245.483 120.618,247.666 120.588 C 249.848 120.558,248.063 120.534,243.697 120.534 C 239.332 120.534,237.547 120.558,239.729 120.588 M19.561 120.767 C 19.792 120.811,20.170 120.811,20.401 120.767 C 20.633 120.722,20.444 120.686,19.981 120.686 C 19.519 120.686,19.330 120.722,19.561 120.767 M100.422 120.767 C 100.655 120.812,100.991 120.810,101.169 120.763 C 101.348 120.716,101.158 120.680,100.747 120.682 C 100.336 120.684,100.190 120.722,100.422 120.767 M280.333 120.775 C 282.355 120.805,285.716 120.805,287.803 120.775 C 289.889 120.745,288.235 120.720,284.127 120.720 C 280.019 120.720,278.311 120.745,280.333 120.775 M370.308 127.700 C 370.462 127.795,370.798 127.929,371.055 127.998 C 371.380 128.084,371.437 128.070,371.242 127.949 C 371.088 127.854,370.752 127.720,370.495 127.651 C 370.170 127.565,370.113 127.579,370.308 127.700 M59.991 128.794 C 60.170 128.840,60.465 128.840,60.644 128.794 C 60.824 128.747,60.677 128.708,60.317 128.708 C 59.958 128.708,59.811 128.747,59.991 128.794 M38.049 129.357 C 38.280 129.401,38.658 129.401,38.889 129.357 C 39.120 129.312,38.931 129.276,38.469 129.276 C 38.007 129.276,37.817 129.312,38.049 129.357 M81.935 129.357 C 82.167 129.402,82.503 129.400,82.682 129.353 C 82.860 129.307,82.670 129.270,82.260 129.272 C 81.849 129.274,81.703 129.312,81.935 129.357 M375.210 130.474 C 375.390 130.521,375.684 130.521,375.864 130.474 C 376.043 130.427,375.896 130.389,375.537 130.389 C 375.177 130.389,375.030 130.427,375.210 130.474 M54.962 131.653 C 54.962 132.320,54.996 132.593,55.037 132.260 C 55.078 131.926,55.078 131.380,55.037 131.046 C 54.996 130.712,54.962 130.985,54.962 131.653 M380.348 131.038 C 380.580 131.082,380.916 131.081,381.095 131.034 C 381.273 130.987,381.083 130.951,380.672 130.953 C 380.261 130.955,380.115 130.993,380.348 131.038 M382.446 131.092 L 381.606 131.223 382.446 131.229 C 382.908 131.232,383.539 131.171,383.847 131.092 L 384.407 130.950 383.847 130.956 C 383.539 130.959,382.908 131.021,382.446 131.092 M65.590 131.653 C 65.590 132.012,65.628 132.159,65.675 131.979 C 65.722 131.800,65.722 131.506,65.675 131.326 C 65.628 131.146,65.590 131.293,65.590 131.653 M384.687 131.268 C 384.939 131.441,386.913 131.565,386.726 131.396 C 386.683 131.357,386.144 131.270,385.528 131.201 C 384.736 131.113,384.489 131.132,384.687 131.268 M387.162 131.408 C 387.341 131.455,387.635 131.455,387.815 131.408 C 387.995 131.361,387.848 131.323,387.488 131.323 C 387.129 131.323,386.982 131.361,387.162 131.408 M31.989 133.333 C 31.989 133.898,32.024 134.129,32.067 133.847 C 32.109 133.564,32.109 133.102,32.067 132.820 C 32.024 132.537,31.989 132.768,31.989 133.333 M42.254 133.333 C 42.254 133.796,42.291 133.985,42.335 133.754 C 42.380 133.522,42.380 133.144,42.335 132.913 C 42.291 132.682,42.254 132.871,42.254 133.333 M40.978 136.368 L 40.430 136.975 41.036 136.426 C 41.602 135.915,41.729 135.761,41.585 135.761 C 41.553 135.761,41.280 136.034,40.978 136.368 M42.754 138.329 L 42.110 139.029 42.810 138.385 C 43.462 137.786,43.597 137.628,43.454 137.628 C 43.423 137.628,43.108 137.944,42.754 138.329 M38.049 140.188 C 38.280 140.232,38.658 140.232,38.889 140.188 C 39.120 140.143,38.931 140.107,38.469 140.107 C 38.007 140.107,37.817 140.143,38.049 140.188 M81.935 140.188 C 82.167 140.233,82.503 140.231,82.682 140.184 C 82.860 140.138,82.670 140.101,82.260 140.103 C 81.849 140.105,81.703 140.143,81.935 140.188 " stroke="none" fill="#a97ba4" fill-rule="evenodd"></path><path id="path4" d="M161.390 90.885 C 161.365 107.133,161.408 120.465,161.485 120.513 C 161.611 120.591,161.611 100.219,161.483 71.989 C 161.456 66.134,161.414 74.638,161.390 90.885 M291.833 61.573 C 292.169 61.615,292.673 61.614,292.954 61.571 C 293.234 61.529,292.960 61.495,292.344 61.496 C 291.727 61.497,291.498 61.532,291.833 61.573 M334.034 61.949 C 334.573 61.987,335.455 61.987,335.994 61.949 C 336.534 61.911,336.092 61.880,335.014 61.880 C 333.936 61.880,333.494 61.911,334.034 61.949 M94.165 67.694 C 94.167 68.105,94.205 68.251,94.250 68.018 C 94.294 67.786,94.293 67.450,94.246 67.271 C 94.199 67.093,94.163 67.283,94.165 67.694 M30.661 81.185 C 31.965 81.217,34.150 81.217,35.517 81.185 C 36.883 81.153,35.817 81.127,33.147 81.127 C 30.476 81.127,29.358 81.153,30.661 81.185 M82.662 81.186 C 82.614 81.263,84.058 81.304,85.872 81.278 C 91.961 81.190,92.565 81.124,87.639 81.085 C 84.949 81.063,82.709 81.109,82.662 81.186 M72.163 119.048 C 72.163 121.615,72.189 122.692,72.222 121.439 C 72.254 120.187,72.254 118.086,72.222 116.771 C 72.190 115.455,72.163 116.480,72.163 119.048 M292.303 120.772 C 292.794 120.811,293.550 120.811,293.983 120.771 C 294.417 120.732,294.015 120.701,293.091 120.701 C 292.166 120.702,291.812 120.734,292.303 120.772 M295.752 120.772 C 296.188 120.811,296.902 120.811,297.339 120.772 C 297.775 120.732,297.418 120.700,296.545 120.700 C 295.672 120.700,295.315 120.732,295.752 120.772 " stroke="none" fill="#aa85a2" fill-rule="evenodd"></path></g></svg>